<?xml version="1.0" encoding="UTF-8"?>
<svg xmlns="http://www.w3.org/2000/svg" xmlns:fi="http://pattern.flaticon.com/" xmlns:xlink="http://www.w3.org/1999/xlink" x="0" y="0" width="700" height="350" viewBox="0 0 700 350">
    <rect x="0px" y="0px" width="100%" height="100%" opacity="0.7" fill="#d3ffa9" />
    <defs>
        <g transform="matrix(0.1697916491523753 0.04549553527192747 -0.04549553527192747 0.1697916491523753 318.13913443629247 295.1981911202066)" id="L1_116">
            <path d="m377.738 197.453c-18.995-25.428-46.071-44.647-76.239-54.116-3.545-1.113-5.927-4.354-5.927-8.066v-17.295c9.308-3.139 16.032-11.946 16.032-22.3v-32.063c0-12.976-10.557-23.532-23.532-23.532h-.516v-8.532c0-17.397-14.152-31.549-31.548-31.549s-31.548 14.152-31.548 31.548v8.532h-.516c-12.976 0-23.532 10.557-23.532 23.532v32.064c0 10.354 6.724 19.16 16.032 22.3v17.294c0 3.712-2.385 6.955-5.935 8.069-32.833 10.307-61.5 31.777-80.72 60.454-20.053 29.919-28.579 64.9-24.655 101.161 6.352 58.711 47.033 107.858 101.298 126.651 5.068 16.993 14.075 41.877 29.082 68.477 4.209 7.462 11.871 11.917 20.494 11.917s16.285-4.455 20.494-11.917c15.03-26.642 24.043-51.56 29.112-68.579 30.769-10.614 57.81-31.006 76.62-59.108 2.304-3.442 1.382-8.101-2.061-10.404-3.442-2.305-8.1-1.381-10.404 2.061-2.983 4.457-6.206 8.689-9.626 12.706h-208.253c-17.325-20.3-28.841-45.672-31.843-73.417-3.539-32.709 4.138-64.244 22.203-91.196 2.989-4.459 6.236-8.72 9.707-12.774h39.919c4.142 0 7.5-3.358 7.5-7.5s-3.358-7.5-7.5-7.5h-24.932c13.998-11.999 30.356-21.162 48.059-26.72 9.833-3.088 16.441-12.082 16.441-22.38v-16.062h49.129v16.062c0 10.299 6.604 19.292 16.435 22.377 17.573 5.516 33.968 14.722 48.001 26.722h-121.067c-4.142 0-7.5 3.358-7.5 7.5s3.358 7.5 7.5 7.5h136.096c1.966 2.293 3.874 4.637 5.683 7.059 17.714 23.713 27.077 51.942 27.077 81.634 0 15.648-2.618 30.989-7.782 45.598-1.38 3.905.667 8.19 4.572 9.571.827.292 1.67.431 2.5.431 3.089 0 5.983-1.924 7.071-5.002 5.732-16.219 8.639-33.242 8.639-50.597 0-32.953-10.395-64.286-30.06-90.611zm-121.957 227.386c-5.117 0-10.276-.283-15.447-.856-27.823-3.086-53.234-14.742-73.516-32.225h178.405c-24.656 21.214-56.266 33.083-89.442 33.081zm7.656 67.874c-1.515 2.685-4.292 4.287-7.43 4.287-3.137 0-5.915-1.603-7.429-4.287-11.842-20.991-19.763-40.849-24.892-56.275 4.918 1.063 9.918 1.89 14.994 2.453 5.734.636 11.447.949 17.121.949 11.063 0 21.969-1.19 32.557-3.494-5.13 15.45-13.058 35.34-24.921 56.367zm-23.978-461.165c0-9.125 7.423-16.548 16.548-16.548s16.548 7.423 16.548 16.548v8.532h-33.097v-8.532zm-24.048 32.065c0-4.705 3.828-8.532 8.532-8.532h64.129c4.705 0 8.532 3.828 8.532 8.532v32.064c0 4.705-3.828 8.532-8.532 8.532h-64.129c-4.705 0-8.532-3.828-8.532-8.532z" />
            <path d="m311.098 256.258c-2.071-3.588-6.658-4.817-10.245-2.745l-37.345 21.562v-43.123c0-4.142-3.358-7.5-7.5-7.5s-7.5 3.358-7.5 7.5v43.123l-37.345-21.562c-3.588-2.072-8.174-.842-10.245 2.745s-.842 8.174 2.745 10.245l37.345 21.562-37.345 21.562c-3.587 2.071-4.816 6.658-2.745 10.245 1.389 2.406 3.91 3.751 6.502 3.751 1.272 0 2.562-.324 3.743-1.006l37.345-21.562v43.123c0 4.142 3.358 7.5 7.5 7.5s7.5-3.358 7.5-7.5v-43.123l37.345 21.562c1.181.682 2.471 1.006 3.743 1.006 2.592 0 5.113-1.346 6.502-3.751 2.071-3.587.842-8.174-2.745-10.245l-37.345-21.562 37.345-21.562c3.587-2.071 4.816-6.658 2.745-10.245z" />
            <path d="m136.282 288.064c0 12.976 10.557 23.532 23.533 23.532s23.532-10.557 23.532-23.532-10.557-23.532-23.532-23.532c-12.977 0-23.533 10.557-23.533 23.532zm32.065 0c0 4.705-3.828 8.532-8.532 8.532-4.705 0-8.533-3.828-8.533-8.532s3.828-8.532 8.533-8.532c4.704 0 8.532 3.828 8.532 8.532z" />
            <path d="m328.669 288.064c0 12.976 10.557 23.532 23.532 23.532s23.532-10.557 23.532-23.532-10.557-23.532-23.532-23.532-23.532 10.557-23.532 23.532zm32.064 0c0 4.705-3.828 8.532-8.532 8.532s-8.532-3.828-8.532-8.532 3.828-8.532 8.532-8.532 8.532 3.828 8.532 8.532z" />
        </g>
        <g transform="matrix(0.0390625 0 0 0.0390625 252.5 340)" id="L1_117">
            <path d="m408.678 63.241c-40.782-40.782-95.004-63.241-152.678-63.241s-111.896 22.459-152.678 63.241-63.241 95.004-63.241 152.678c0 43.44 12.847 85.326 37.152 121.129 23.719 34.94 56.785 61.981 95.624 78.199 3.823 1.596 8.215-.208 9.811-4.031 1.596-3.822-.208-8.215-4.031-9.811-36.142-15.092-66.916-40.26-88.994-72.783-22.611-33.307-34.562-72.279-34.562-112.704 0-110.786 90.131-200.918 200.919-200.918s200.919 90.132 200.919 200.919c0 46.176-15.229 89.588-44.042 125.544-26.978 33.666-64.43 57.977-105.872 68.839l-3.22-5.634c.1.002.199.012.299.012 3.222 0 6.414-1 9.085-2.925 4.035-2.908 6.444-7.614 6.444-12.587v-25.853c0-4.974-2.409-9.68-6.444-12.588-4.036-2.908-9.261-3.705-13.979-2.132l-5.844 1.948 15.571-27.249c39.547-19.569 66.808-60.345 66.808-107.375 0-8.409-.876-16.702-2.573-24.774 1.012.133 2.042.209 3.09.209 12.976 0 23.533-10.557 23.533-23.532s-10.557-23.532-23.533-23.532c-7.395 0-14 3.432-18.318 8.783-4.257-6.886-9.232-13.383-14.898-19.378-2.845-3.01-7.592-3.145-10.603-.299-3.01 2.845-3.144 7.592-.299 10.602 18.444 19.514 28.601 45.056 28.601 71.921 0 57.746-46.979 104.726-104.726 104.726s-104.726-46.98-104.726-104.726 46.981-104.726 104.727-104.726c17.708 0 35.204 4.499 50.597 13.01 3.625 2.005 8.189.69 10.193-2.934 2.004-3.625.69-8.188-2.934-10.193-17.61-9.736-37.616-14.883-57.856-14.883-8.492 0-16.778.896-24.775 2.584.134-1.015.211-2.049.211-3.1 0-12.976-10.557-23.532-23.532-23.532s-23.532 10.557-23.532 23.532c0 7.415 3.451 14.036 8.827 18.353-34.133 21.115-56.924 58.888-56.924 101.889 0 8.492.895 16.778 2.584 24.775-1.015-.134-2.049-.21-3.1-.21-12.976 0-23.533 10.557-23.533 23.532s10.557 23.532 23.533 23.532c7.415 0 14.036-3.451 18.352-8.828 11.792 19.062 28.779 34.582 48.972 44.574l15.571 27.249-5.844-1.948c-4.718-1.573-9.944-.776-13.979 2.132s-6.444 7.614-6.444 12.588v25.853c0 4.974 2.409 9.679 6.444 12.587 2.671 1.925 5.863 2.925 9.085 2.925.1 0 .199-.01.299-.012l-54.92 96.11c-1.327 2.321-1.317 5.173.025 7.485 1.342 2.313 3.813 3.736 6.487 3.736h36.927c2.691 0 5.177-1.442 6.512-3.779l52.754-92.32 52.755 92.321c1.335 2.337 3.82 3.779 6.512 3.779h36.927c2.673 0 5.145-1.423 6.487-3.736 1.342-2.312 1.352-5.164.025-7.485l-44.012-77.021c42.995-12.15 81.749-37.799 109.889-72.915 30.526-38.093 47.337-86.01 47.337-134.924-.001-57.674-22.46-111.896-63.242-152.678zm-32.436 96.049c4.705 0 8.533 3.828 8.533 8.532 0 4.705-3.828 8.532-8.533 8.532s-8.532-3.827-8.532-8.532c-.001-4.704 3.827-8.532 8.532-8.532zm-168.339-72.144c4.705 0 8.532 3.827 8.532 8.532 0 4.704-3.828 8.532-8.532 8.532s-8.532-3.828-8.532-8.532c0-4.705 3.828-8.532 8.532-8.532zm-72.145 185.402c-4.705 0-8.533-3.828-8.533-8.532s3.828-8.532 8.533-8.532 8.532 3.828 8.532 8.532-3.827 8.532-8.532 8.532zm168.176 90.277c.082-.026.251-.083.465.071s.214.333.214.419v25.853c0 .085 0 .264-.214.418-.214.155-.383.099-.465.071l-24.963-8.321c.364-1.642.562-3.346.562-5.095 0-1.75-.198-3.454-.562-5.095zm-47.934 21.949c-4.705 0-8.532-3.828-8.532-8.532 0-4.705 3.828-8.532 8.532-8.532s8.532 3.827 8.532 8.532c0 4.704-3.827 8.532-8.532 8.532zm0-49.128c10.681 0 21.037-1.414 30.898-4.051l-15.405 26.958c-4.143-3.633-9.564-5.843-15.494-5.843s-11.351 2.209-15.494 5.843l-15.404-26.958c9.862 2.636 20.218 4.051 30.899 4.051zm-48.398 53.941c-.214-.154-.214-.333-.214-.418v-25.853c0-.086 0-.265.214-.419s.384-.098.465-.071l24.963 8.321c-.364 1.642-.562 3.346-.562 5.096s.198 3.453.562 5.095l-24.963 8.321c-.082.027-.251.083-.465-.072zm-15.221 107.413h-19.65l56.295-98.517 12.091-4.03c2.204 1.805 4.742 3.214 7.504 4.128zm127.238 0-56.239-98.418c2.762-.915 5.3-2.324 7.504-4.128l12.09 4.03 56.296 98.516z" />
            <path d="m72.145 203.896c0 15.186 12.354 27.54 27.541 27.54 15.186 0 27.54-12.354 27.54-27.54s-12.354-27.541-27.54-27.541c-15.186-.001-27.541 12.354-27.541 27.541zm40.081 0c0 6.915-5.625 12.54-12.54 12.54s-12.541-5.625-12.541-12.54 5.625-12.541 12.541-12.541c6.914-.001 12.54 5.625 12.54 12.541z" />
            <path d="m439.855 227.943c0-15.186-12.354-27.54-27.541-27.54-15.186 0-27.54 12.354-27.54 27.54s12.354 27.541 27.54 27.541 27.541-12.355 27.541-27.541zm-40.081 0c0-6.915 5.625-12.54 12.54-12.54s12.541 5.625 12.541 12.54-5.625 12.541-12.541 12.541c-6.914 0-12.54-5.626-12.54-12.541z" />
            <path d="m295.564 59.604c0-15.186-12.354-27.54-27.54-27.54s-27.541 12.354-27.541 27.54 12.354 27.541 27.541 27.541c15.186.001 27.54-12.354 27.54-27.541zm-40.08 0c0-6.915 5.625-12.54 12.541-12.54 6.915 0 12.54 5.625 12.54 12.54s-5.625 12.541-12.54 12.541c-6.916.001-12.541-5.625-12.541-12.541z" />
            <path d="m151.274 119.726c0-12.976-10.557-23.532-23.533-23.532s-23.532 10.557-23.532 23.532 10.557 23.532 23.532 23.532c12.977 0 23.533-10.557 23.533-23.532zm-32.065 0c0-4.704 3.828-8.532 8.532-8.532 4.705 0 8.533 3.828 8.533 8.532 0 4.705-3.828 8.532-8.533 8.532-4.704 0-8.532-3.827-8.532-8.532z" />
            <path d="m151.791 312.629c-12.976 0-23.532 10.557-23.532 23.532s10.557 23.532 23.532 23.532 23.532-10.557 23.532-23.532-10.557-23.532-23.532-23.532zm0 32.064c-4.705 0-8.532-3.827-8.532-8.532 0-4.704 3.828-8.532 8.532-8.532s8.532 3.828 8.532 8.532c0 4.705-3.828 8.532-8.532 8.532z" />
            <path d="m352.193 111.193c12.976 0 23.532-10.557 23.532-23.532s-10.557-23.532-23.532-23.532-23.532 10.557-23.532 23.532 10.557 23.532 23.532 23.532zm0-32.064c4.705 0 8.532 3.828 8.532 8.532 0 4.705-3.828 8.532-8.532 8.532s-8.532-3.827-8.532-8.532c0-4.704 3.828-8.532 8.532-8.532z" />
            <path d="m352.709 320.129c0 12.976 10.557 23.532 23.532 23.532 12.976 0 23.533-10.556 23.533-23.532s-10.557-23.532-23.533-23.532c-12.975 0-23.532 10.556-23.532 23.532zm32.065 0c0 4.705-3.828 8.532-8.533 8.532s-8.532-3.827-8.532-8.532 3.828-8.532 8.532-8.532c4.706 0 8.533 3.827 8.533 8.532z" />
        </g>
        <g transform="matrix(0.0390625 0 0 0.0390625 77.5 340)" id="L1_118">
            <path d="m252.685 87.809c1.072-4.001-1.302-8.114-5.304-9.186-3.996-1.068-8.113 1.302-9.186 5.304l-10.396 38.8-32.436 18.727v-37.454l28.404-28.404c2.929-2.929 2.929-7.678 0-10.606-2.929-2.929-7.678-2.929-10.606 0l-25.297 25.297-25.299-25.297c-2.929-2.929-7.678-2.929-10.606 0-2.929 2.929-2.929 7.678 0 10.606l28.404 28.404v37.454l-32.436-18.727-10.396-38.8c-1.072-4.001-5.186-6.373-9.186-5.304-4.001 1.072-6.375 5.185-5.304 9.186l9.259 34.557-34.556 9.259c-4.001 1.072-6.375 5.185-5.304 9.186.898 3.351 3.928 5.561 7.24 5.561.643 0 1.296-.083 1.946-.257l38.801-10.396 32.436 18.727-32.436 18.727-38.8-10.396c-3.999-1.069-8.114 1.302-9.186 5.303s1.302 8.114 5.303 9.186l34.557 9.259-9.259 34.557c-1.072 4.001 1.303 8.113 5.304 9.186.65.174 1.303.257 1.946.257 3.311 0 6.342-2.21 7.24-5.561l10.396-38.8 32.436-18.727v37.454l-28.404 28.404c-2.929 2.929-2.929 7.678 0 10.606 2.929 2.929 7.678 2.929 10.606 0l25.297-25.297 25.297 25.297c1.464 1.464 3.384 2.197 5.303 2.197s3.839-.732 5.303-2.197c2.929-2.929 2.929-7.678 0-10.606l-28.404-28.404v-37.454l32.436 18.727 10.397 38.801c.898 3.351 3.928 5.561 7.24 5.561.643 0 1.296-.083 1.946-.257 4.001-1.072 6.375-5.185 5.303-9.186l-9.26-34.556 34.557-9.259c4.001-1.072 6.375-5.185 5.304-9.186-1.072-4.001-5.187-6.374-9.186-5.304l-38.801 10.397-32.436-18.727 32.436-18.727 38.801 10.396c.65.174 1.303.257 1.946.257 3.311 0 6.342-2.21 7.24-5.561 1.072-4.001-1.303-8.113-5.304-9.186l-34.557-9.259z" />
            <path d="m459.895 211.911c0-85.908-60.901-155.798-135.758-155.798-9.932 0-19.806 1.242-29.427 3.678-24.873-36.378-63.522-59.791-106.847-59.791-74.857 0-135.758 69.891-135.758 155.798 0 78.918 51.396 144.312 117.792 154.432l-13.197 39.592c-.762 2.287-.379 4.801 1.031 6.757s3.674 3.115 6.084 3.115h16.869c2.108 24.778 14.377 43.956 26.281 62.556 14.508 22.669 29.51 46.109 29.51 82.25 0 4.142 3.358 7.5 7.5 7.5s7.5-3.358 7.5-7.5c0-40.53-16.935-66.991-31.876-90.336-11.617-18.151-21.812-34.095-23.857-54.47h16.169c2.411 0 4.675-1.159 6.084-3.115 1.41-1.956 1.793-4.47 1.031-6.757l-13.197-39.592c66.396-10.12 117.792-75.513 117.792-154.432 0-30.282-7.575-58.568-20.653-82.51 6.96-1.435 14.048-2.176 21.169-2.176 62.321 0 113.765 55.332 120.099 126.073l-31.777-18.347-10.396-38.8c-1.072-4.001-5.187-6.375-9.186-5.304-4.001 1.072-6.375 5.185-5.304 9.186l9.259 34.557-34.557 9.259c-4.001 1.072-6.375 5.185-5.303 9.186.898 3.351 3.928 5.561 7.24 5.561.643 0 1.296-.083 1.946-.257l38.801-10.397 32.435 18.727-32.435 18.727-38.801-10.397c-4.001-1.07-8.114 1.303-9.186 5.303-1.072 4.001 1.302 8.114 5.303 9.186l34.557 9.259-9.259 34.557c-1.072 4.001 1.303 8.113 5.304 9.186.65.174 1.303.257 1.946.257 3.311 0 6.342-2.21 7.24-5.561l10.396-38.8 32.001-18.477c-5.194 72.093-57.171 128.911-120.323 128.911-27.563 0-53.521-10.557-75.067-30.53-3.039-2.816-7.783-2.636-10.599.402s-2.636 7.783.402 10.599c19.345 17.932 42.752 29.37 67.303 33.146l-13.203 39.609c-.762 2.287-.379 4.801 1.031 6.757s3.674 3.115 6.084 3.115h16.055c-1.401 10.903-5.594 21.351-9.986 32.292-6.36 15.84-13.568 33.794-13.568 56.401 0 4.142 3.358 7.5 7.5 7.5s7.5-3.358 7.5-7.5c0-19.708 6.349-35.521 12.488-50.813 5.027-12.522 9.805-24.463 11.164-37.881h16.944c2.411 0 4.675-1.159 6.084-3.115 1.41-1.956 1.793-4.47 1.031-6.757l-13.197-39.592c66.396-10.117 117.792-75.51 117.792-154.429zm-258.39 132.782h-27.285l11.045-33.135c.865.019 1.729.038 2.598.038s1.733-.019 2.598-.038zm-13.642-48.096c-66.586 0-120.758-63.162-120.758-140.798s54.172-140.799 120.758-140.799 120.758 63.162 120.758 140.798-54.172 140.799-120.758 140.799zm149.917 104.21h-27.285l11.043-33.129c.866.019 1.732.032 2.6.032s1.733-.019 2.598-.038z" />
        </g>
        <g transform="matrix(0.078125 0 0 0.078125 67.5 67.5)" id="L1_119">
            <path d="m504.5 497h-8.532v-18.297c9.308-3.139 16.032-11.946 16.032-22.3 0-11.122-8.934-31.548-23.532-31.548s-23.532 20.426-23.532 31.548c0 10.354 6.724 19.16 16.032 22.3v18.297h-81.193v-18.297c9.308-3.139 16.032-11.946 16.032-22.3 0-11.122-8.934-31.548-23.532-31.548s-23.533 20.426-23.533 31.548c0 10.354 6.724 19.16 16.033 22.3v18.297h-40.597c-24.105 0-45.759-10.64-60.555-27.455l14.781-11.315c2.974 2.008 6.383 3.335 10.044 3.821 1.052.14 2.103.209 3.146.209 5.137 0 10.107-1.675 14.256-4.851 8.832-6.761 19.62-26.271 10.746-37.862-4.103-5.359-11.436-7.705-20.649-6.599-6.906.827-14.074 3.544-18.706 7.09-4.991 3.821-8.195 9.356-9.023 15.587-.487 3.663-.111 7.307 1.053 10.704l-14.481 11.086c-7.16-12.045-11.289-26.093-11.289-41.094v-48.613h18.297c3.139 9.308 11.946 16.032 22.3 16.032 11.122 0 31.548-8.934 31.548-23.532s-20.426-23.532-31.548-23.532c-10.354 0-19.16 6.724-22.3 16.032h-18.298v-81.193h18.297c3.139 9.308 11.946 16.032 22.3 16.032 11.122 0 31.548-8.934 31.548-23.532s-20.426-23.532-31.548-23.532c-10.354 0-19.16 6.724-22.3 16.032h-18.297v-81.193h18.297c3.139 9.308 11.946 16.032 22.3 16.032 11.122 0 31.548-8.934 31.548-23.532s-20.426-23.532-31.548-23.532c-10.354 0-19.16 6.724-22.3 16.032h-18.609c-.258-3.323-.668-6.63-1.266-9.885-.748-4.074-4.662-6.771-8.731-6.022-4.074.748-6.771 4.657-6.022 8.731.882 4.807 1.33 9.745 1.33 14.676v248.5c0 52.757 42.921 95.677 95.678 95.677h160.323c4.142 0 7.5-3.358 7.5-7.5s-3.358-7.499-7.5-7.499zm-16.032-57.145c.599 0 2.659 1.265 4.881 5.022 2.508 4.241 3.651 8.948 3.651 11.526 0 4.705-3.828 8.532-8.532 8.532s-8.532-3.828-8.532-8.532c0-6.931 5.923-16.548 8.532-16.548zm-96.194 0c.599 0 2.659 1.265 4.881 5.022 2.509 4.241 3.651 8.948 3.651 11.526 0 4.705-3.828 8.532-8.532 8.532-4.705 0-8.533-3.828-8.533-8.532.001-6.931 5.925-16.548 8.533-16.548zm-85.916-7.906c2.047-1.567 6.479-3.521 11.372-4.107.943-.113 1.789-.161 2.537-.161 2.69 0 4.134.612 4.418.984.364.475.612 2.88-1.021 6.928-1.843 4.57-4.886 8.338-6.933 9.906-1.81 1.385-4.052 1.982-6.31 1.683-2.258-.3-4.264-1.46-5.65-3.269-.001-.001-.001-.002-.002-.003s-.002-.002-.003-.003c-2.855-3.735-2.142-9.099 1.592-11.958zm-2.261-80.272c6.932 0 16.548 5.924 16.548 8.532 0 .599-1.265 2.659-5.022 4.881-4.241 2.508-8.948 3.651-11.526 3.651-4.705 0-8.532-3.828-8.532-8.532s3.827-8.532 8.532-8.532zm0-96.193c6.932 0 16.548 5.924 16.548 8.532 0 .599-1.265 2.659-5.022 4.881-4.241 2.508-8.948 3.651-11.526 3.651-4.705 0-8.532-3.828-8.532-8.532s3.827-8.532 8.532-8.532zm0-96.193c6.932 0 16.548 5.924 16.548 8.532 0 .599-1.265 2.659-5.022 4.881-4.241 2.509-8.948 3.651-11.526 3.651-4.705 0-8.532-3.828-8.532-8.532s3.827-8.532 8.532-8.532z" />
            <path d="m246.104 112.798c-1.74-2.471-3.589-4.842-5.534-7.115l13.159-13.159c3.285 1.627 6.866 2.46 10.455 2.46 6.026 0 12.053-2.294 16.641-6.881 7.864-7.865 15.99-28.626 5.668-38.948-10.322-10.323-31.083-2.198-38.948 5.668-7.32 7.32-8.781 18.294-4.422 27.095l-13.171 13.171c-15.271-13.025-34.384-21.04-54.628-22.637v-18.604c9.308-3.139 16.032-11.946 16.032-22.3-.001-11.122-8.935-31.548-23.533-31.548s-23.532 20.426-23.532 31.548c0 10.354 6.724 19.16 16.032 22.3v18.59c-20.753 1.617-39.666 9.886-54.61 22.669l-13.189-13.19c4.359-8.801 2.898-19.775-4.422-27.095-7.865-7.865-28.625-15.989-38.948-5.668-10.322 10.322-2.197 31.083 5.668 38.949 4.588 4.587 10.614 6.881 16.64 6.881 3.588 0 7.17-.833 10.455-2.46l13.189 13.189c-12.783 14.944-21.052 33.857-22.669 54.61h-18.59c-3.139-9.308-11.946-16.032-22.3-16.032-11.121 0-31.547 8.934-31.547 23.532s20.426 23.532 31.548 23.532c10.354 0 19.16-6.724 22.3-16.032h18.297v81.193h-18.297c-3.139-9.308-11.946-16.032-22.3-16.032-11.122 0-31.548 8.934-31.548 23.532s20.426 23.532 31.548 23.532c10.354 0 19.16-6.724 22.3-16.032h18.297v81.193h-18.297c-3.139-9.308-11.946-16.032-22.3-16.032-11.122 0-31.548 8.934-31.548 23.532s20.426 23.532 31.548 23.532c10.354 0 19.16-6.724 22.3-16.032h18.297v40.597c0 4.142 3.358 7.5 7.5 7.5s7.5-3.358 7.5-7.5v-240.484c0-44.485 36.192-80.677 80.678-80.677 26.22 0 50.898 12.818 66.016 34.289 2.385 3.387 7.064 4.2 10.45 1.814 3.387-2.385 4.199-7.063 1.815-10.45zm-214.556 159.75c-6.932 0-16.548-5.924-16.548-8.532 0-.599 1.265-2.659 5.022-4.881 4.241-2.508 8.948-3.651 11.526-3.651 4.705 0 8.532 3.828 8.532 8.532s-3.827 8.532-8.532 8.532zm0 96.194c-6.932 0-16.548-5.924-16.548-8.532 0-.599 1.265-2.659 5.022-4.881 4.241-2.509 8.948-3.651 11.526-3.651 4.705 0 8.532 3.828 8.532 8.532s-3.827 8.532-8.532 8.532zm0-192.387c-6.932 0-16.548-5.924-16.548-8.532 0-.599 1.265-2.659 5.022-4.881 4.241-2.508 8.948-3.651 11.526-3.651 4.705 0 8.532 3.828 8.532 8.532s-3.827 8.532-8.532 8.532zm226.602-110.926c3.83-3.83 11.377-6.261 15.373-6.261 1.118 0 1.958.19 2.362.593.423.423.985 2.774-.1 7.002-1.225 4.773-3.746 8.909-5.568 10.732-3.327 3.327-8.74 3.327-12.066 0-3.328-3.326-3.328-8.74-.001-12.066zm-90.327-50.429c.599 0 2.659 1.265 4.881 5.022 2.509 4.241 3.651 8.948 3.651 11.526 0 4.705-3.828 8.532-8.532 8.532s-8.532-3.828-8.532-8.532c0-6.931 5.923-16.548 8.532-16.548zm-102.394 62.496c-1.823-1.823-4.344-5.959-5.569-10.732-1.085-4.228-.523-6.579-.099-7.002.241-.242 1.111-.529 2.599-.529 1.119 0 2.588.163 4.403.628 4.773 1.225 8.909 3.746 10.732 5.568 3.327 3.327 3.327 8.74 0 12.066-3.325 3.327-8.738 3.328-12.066.001z" />
        </g>
        <g transform="matrix(0.078125 0 0 0.078125 155 330)" id="L1_120">
            <path d="m503.646 331.073c-1.741-2.04-3.541-4.148-4.186-5.705-.716-1.727-.962-4.612-1.199-7.401-.478-5.615-1.073-12.604-6.066-17.597-3.512-3.511-8.009-4.844-12.323-5.495-1.313-58.934-24.878-114.146-66.7-155.968-43.052-43.052-100.294-66.762-161.18-66.762s-118.127 23.71-161.18 66.763-66.763 100.294-66.763 161.18v12.541h-.516c-12.976 0-23.533 10.556-23.533 23.532v80.161c0 12.976 10.557 23.532 23.532 23.532h368.742c12.976 0 23.532-10.557 23.532-23.532v-80.161c0-8.004-4.02-15.083-10.142-19.336.261-2.531.66-5.003 1.507-5.849 1.119-1.118 5.08-1.456 8.263-1.727 3.748-.319 7.995-.68 11.875-2.289 3.746-1.553 6.771-4.136 9.697-6.633 2.615-2.233 5.58-4.763 7.374-4.763s4.758 2.53 7.374 4.763c2.926 2.498 5.951 5.08 9.697 6.633 3.879 1.609 8.127 1.97 11.875 2.29 3.183.271 7.145.608 8.263 1.727 1.119 1.119 1.456 5.08 1.727 8.263.319 3.748.681 7.995 2.29 11.875 1.553 3.746 4.136 6.772 6.633 9.698 2.232 2.615 4.763 5.58 4.763 7.374s-2.53 4.758-4.763 7.374c-2.497 2.926-5.08 5.951-6.633 9.697-1.609 3.88-1.971 8.127-2.29 11.875-.271 3.183-.608 7.145-1.727 8.263s-5.08 1.456-8.263 1.727c-3.748.319-7.995.681-11.874 2.289-3.747 1.553-6.772 4.136-9.698 6.633-2.615 2.232-5.58 4.763-7.374 4.763-.335 0-.722-.092-1.185-.28-3.836-1.564-8.212.278-9.777 4.113-1.564 3.836.277 8.213 4.113 9.777 2.263.923 4.567 1.391 6.849 1.391 7.325 0 12.751-4.632 17.112-8.354 2.04-1.741 4.148-3.541 5.705-4.186 1.727-.716 4.611-.962 7.401-1.199 5.615-.478 12.604-1.073 17.597-6.066s5.588-11.981 6.066-17.597c.237-2.79.483-5.674 1.199-7.402.646-1.556 2.446-3.665 4.187-5.705 3.722-4.36 8.354-9.787 8.354-17.112s-4.633-12.754-8.355-17.115zm-102.839 85.25c0 4.705-3.828 8.532-8.532 8.532h-368.743c-4.705 0-8.532-3.828-8.532-8.532v-80.161c0-4.705 3.828-8.532 8.532-8.532h32.068c4.142 0 7.5-3.358 7.5-7.5s-3.358-7.5-7.5-7.5h-16.552v-12.541c0-6.725.328-13.374.941-19.942 7.044 1.115 11.546 3.621 16.612 6.45 7.528 4.204 16.06 8.968 32.367 8.968 16.31 0 24.844-4.764 32.373-8.968 6.791-3.791 12.655-7.065 25.062-7.065 12.398 0 18.258 3.273 25.043 7.064 7.526 4.204 16.056 8.969 32.359 8.969 16.314 0 24.85-4.764 32.381-8.967 6.793-3.791 12.66-7.065 25.072-7.065 12.423 0 18.294 3.275 25.093 7.066 7.536 4.203 16.076 8.966 32.399 8.966s24.864-4.763 32.399-8.966c5.26-2.934 9.979-5.55 17.593-6.588v32.618h-281.079c-4.142 0-7.5 3.358-7.5 7.5s3.358 7.5 7.5 7.5h304.611c4.705 0 8.532 3.828 8.532 8.532v80.162zm43.572-135.759c-7.325 0-12.752 4.632-17.112 8.354-2.039 1.741-4.148 3.541-5.705 4.186-1.727.716-4.611.962-7.4 1.199-5.616.478-12.604 1.073-17.597 6.065-3.495 3.494-4.833 7.965-5.487 12.26h-7.337v-56.628c0-9.125 7.424-16.548 16.549-16.548 4.142 0 7.5-3.358 7.5-7.5s-3.358-7.5-7.5-7.5c-17.396 0-31.549 14.153-31.549 31.548v8.912c-11.614 1.197-18.615 5.081-24.899 8.586-6.798 3.792-12.67 7.066-25.093 7.066s-18.294-3.275-25.093-7.066c-7.536-4.203-16.076-8.966-32.399-8.966-16.314 0-24.851 4.764-32.382 8.967-6.792 3.791-12.659 7.065-25.071 7.065-12.398 0-18.258-3.273-25.044-7.064-7.525-4.204-16.055-8.968-32.358-8.968-16.311 0-24.844 4.764-32.373 8.968-6.791 3.791-12.654 7.065-25.061 7.065-12.403 0-18.265-3.274-25.053-7.064-5.712-3.19-12.082-6.73-22.004-8.228 16.667-100.913 104.519-178.128 210.081-178.128 114.57 0 208.28 90.953 212.759 204.445-1.042-.783-2.16-1.733-3.26-2.671-4.36-3.723-9.787-8.355-17.112-8.355z" />
            <path d="m254.479 182.585c-2.071-3.588-6.658-4.816-10.245-2.745l-28.831 16.646v-33.291c0-4.142-3.358-7.5-7.5-7.5s-7.5 3.358-7.5 7.5v33.291l-28.831-16.646c-3.588-2.072-8.174-.843-10.245 2.745-2.071 3.587-.842 8.174 2.745 10.245l28.831 16.646-28.831 16.646c-3.587 2.071-4.816 6.658-2.745 10.245 1.389 2.406 3.91 3.751 6.502 3.751 1.272 0 2.562-.324 3.743-1.006l28.831-16.646v33.291c0 4.142 3.358 7.5 7.5 7.5s7.5-3.358 7.5-7.5v-33.291l28.831 16.646c1.181.682 2.471 1.006 3.743 1.006 2.592 0 5.113-1.345 6.502-3.751 2.071-3.587.842-8.174-2.745-10.245l-28.831-16.646 28.831-16.646c3.587-2.071 4.816-6.658 2.745-10.245z" />
        </g>
        <g transform="matrix(0.078125 0 0 0.078125 242.5 67.5)" id="L1_121">
            <path d="m401.533 364.753-57.421-102.753c-1.107-1.981-.337-3.712.046-4.364s1.518-2.169 3.788-2.169c6.958 0 13.211-3.583 16.729-9.586s3.589-13.21.189-19.28l-30.471-54.414c-2.023-3.613-6.594-4.902-10.208-2.879-3.614 2.024-4.903 6.594-2.879 10.208l30.471 54.414c1.11 1.981.34 3.713-.042 4.366-.383.653-1.518 2.171-3.789 2.171-6.954 0-13.207 3.581-16.725 9.579-3.519 5.998-3.595 13.202-.202 19.272l57.42 102.753c2.152 3.851.655 7.214-.089 8.481s-2.949 4.215-7.36 4.215h-76.89c-12.977 0-23.534 10.557-23.534 23.533v80.167c0 4.705-3.828 8.533-8.533 8.533h-32.066c-4.705 0-8.533-3.828-8.533-8.533v-80.167c0-12.976-10.557-23.533-23.534-23.533h-76.89c-4.411 0-6.616-2.948-7.36-4.215-.744-1.268-2.241-4.631-.089-8.481l57.421-102.753c3.393-6.07 3.317-13.274-.202-19.272s-9.771-9.579-16.725-9.579c-2.301 0-3.442-1.524-3.826-2.179-.376-.642-1.132-2.345-.037-4.3l54.215-96.812c2.94-5.251 2.88-11.486-.163-16.678-3.045-5.195-8.46-8.297-14.503-8.297-.85 0-1.311-.483-1.548-.888s-.432-1.043-.015-1.785l50.893-90.475c2.056-3.658 5.531-4.053 6.929-4.053s4.873.395 6.931 4.053l50.892 90.475c.417.741.222 1.379-.015 1.784s-.698.888-1.548.888c-6.025 0-11.441 3.104-14.488 8.302-3.046 5.198-3.108 11.44-.164 16.697l5.695 10.169c2.025 3.615 6.594 4.904 10.208 2.879 3.614-2.024 4.903-6.594 2.879-10.208l-5.695-10.169c-.415-.741-.22-1.378.017-1.783.237-.404.698-.887 1.548-.887 6.032 0 11.451-3.108 14.496-8.315s3.098-11.454.14-16.711l-50.892-90.474c-4.121-7.326-11.599-11.7-20.004-11.7s-15.883 4.374-20.004 11.7l-50.892 90.474c-2.958 5.257-2.905 11.504.14 16.711s8.464 8.315 14.515 8.315c.848 0 1.307.48 1.543.882.234.4.428 1.03.017 1.764l-54.215 96.812c-3.389 6.052-3.321 13.235.184 19.214 3.521 6.008 9.79 9.595 16.768 9.595 2.27 0 3.405 1.517 3.788 2.169s1.153 2.383.046 4.364l-57.421 102.753c-4.117 7.367-4.024 16.111.246 23.39 4.271 7.279 11.858 11.624 20.297 11.624h76.89c4.706 0 8.534 3.828 8.534 8.533v80.167c0 12.976 10.557 23.533 23.533 23.533h32.066c12.976 0 23.533-10.557 23.533-23.533v-80.167c0-4.705 3.828-8.533 8.534-8.533h76.89c8.439 0 16.026-4.345 20.297-11.624 4.269-7.279 4.361-16.022.244-23.39z" />
            <path d="m320.949 235.368c4.473-4.912 5.291-12.118 2.035-17.93l-39.597-70.697c-3.15-5.624-4.821-11.167-4.965-16.476-.206-7.542 1.9-14.691 6.089-20.672 3.291-4.698 3.544-11.064.645-16.219l-15.632-27.792c-2.744-4.879-7.926-7.91-13.524-7.91s-10.78 3.031-13.524 7.91l-15.628 27.785c-2.891 5.141-2.62 11.528.692 16.272 3.172 4.544 5.131 9.756 5.824 15.491.852 7.062-.793 14.537-4.758 21.616l-39.59 70.693c-3.256 5.813-2.438 13.018 2.035 17.93 5.368 5.895 8.592 13.306 9.324 21.432.65 7.216-1.17 14.902-5.264 22.228l-36.653 65.587c-2.714 4.857-2.653 10.623.163 15.421s7.819 7.664 13.383 7.664h19.864c4.142 0 7.5-3.358 7.5-7.5s-3.358-7.5-7.5-7.5h-19.864c-.11 0-.295 0-.445-.255s-.06-.417-.006-.513l36.652-65.587c5.573-9.973 8.032-20.654 7.109-30.891-1.028-11.413-5.583-21.851-13.173-30.186-.12-.132-.135-.328-.038-.5l39.59-70.693c5.529-9.872 7.798-20.502 6.563-30.743-.99-8.202-3.821-15.698-8.408-22.265-.009-.026-.025-.171.074-.349l15.628-27.783c.059-.105.148-.264.451-.264s.392.159.45.263l15.632 27.792c.08.142.095.266.096.327-6.018 8.624-9.043 18.865-8.75 29.619.211 7.761 2.523 15.633 6.873 23.397l39.597 70.697c.096.172.081.369-.039.5-7.587 8.332-12.142 18.768-13.172 30.178-.923 10.235 1.533 20.916 7.104 30.886l36.657 65.599c.054.097.145.259-.005.514s-.334.255-.445.255h-116.064c-4.142 0-7.5 3.358-7.5 7.5s3.358 7.5 7.5 7.5h116.062c5.564 0 10.567-2.865 13.383-7.664s2.876-10.564.163-15.422l-36.657-65.6c-4.092-7.322-5.911-15.006-5.26-22.221.733-8.122 3.957-15.531 9.323-21.424z" />
            <path d="m234.664 218.614c-2.929 2.929-2.929 7.678 0 10.606l8.017 8.017c1.464 1.464 3.384 2.197 5.303 2.197s3.839-.732 5.303-2.197c2.929-2.929 2.929-7.678 0-10.606l-8.017-8.017c-2.929-2.929-7.678-2.929-10.606 0z" />
            <path d="m280.566 320.117v8.017c0 4.142 3.358 7.5 7.5 7.5s7.5-3.358 7.5-7.5v-8.017c0-4.142-3.358-7.5-7.5-7.5s-7.5 3.358-7.5 7.5z" />
            <path d="m229.237 325.42c2.929-2.929 2.929-7.678 0-10.606l-8.017-8.017c-2.929-2.929-7.678-2.929-10.606 0-2.929 2.929-2.929 7.678 0 10.606l8.017 8.017c1.464 1.464 3.384 2.197 5.303 2.197s3.838-.732 5.303-2.197z" />
            <path d="m266.73 282.747-8.017 8.017c-2.929 2.929-2.929 7.678 0 10.606 1.464 1.464 3.384 2.197 5.303 2.197s3.839-.732 5.303-2.197l8.017-8.017c2.929-2.929 2.929-7.678 0-10.606-2.928-2.929-7.677-2.929-10.606 0z" />
            <path d="m280.05 216.417c-4.142 0-7.5 3.358-7.5 7.5s3.358 7.5 7.5 7.5h.08c4.142 0 7.46-3.358 7.46-7.5s-3.398-7.5-7.54-7.5z" />
            <path d="m247.903 256.5c-4.142 0-7.46 3.358-7.46 7.5s3.398 7.5 7.54 7.5 7.5-3.358 7.5-7.5-3.358-7.5-7.5-7.5z" />
            <path d="m258.713 178.531-8.017 8.017c-2.929 2.929-2.929 7.678 0 10.606 1.464 1.464 3.384 2.197 5.303 2.197s3.839-.732 5.303-2.197l8.017-8.017c2.929-2.929 2.929-7.678 0-10.606-2.928-2.929-7.677-2.929-10.606 0z" />
        </g>
        <path d="m376.242 448.903h-8.532v-208.935c0-4.142-3.358-7.5-7.5-7.5s-7.5 3.358-7.5 7.5v208.936h-152.82c-4.142 0-7.5 3.358-7.5 7.5s3.358 7.5 7.5 7.5h176.352c4.705 0 8.533 3.828 8.533 8.532v16.032c0 4.705-3.828 8.532-8.533 8.532h-240.484c-4.705 0-8.533-3.828-8.533-8.532v-16.032c0-4.705 3.828-8.532 8.533-8.532h32.066c4.142 0 7.5-3.358 7.5-7.5s-3.358-7.5-7.5-7.5h-8.534v-217.482c.172.004.343.013.516.013 12.976 0 23.532-10.556 23.532-23.532v-8.016c0-4.705 3.828-8.532 8.532-8.532s8.532 3.828 8.532 8.532v96.194c0 12.976 10.557 23.532 23.532 23.532s23.532-10.557 23.532-23.532v-64.129c0-4.705 3.828-8.532 8.532-8.532s8.532 3.828 8.532 8.532v16.032c0 12.976 10.557 23.532 23.532 23.532s23.532-10.557 23.532-23.532v-56.113c0-4.705 3.828-8.532 8.532-8.532s8.532 3.828 8.532 8.532c0 12.976 10.557 23.532 23.532 23.532s23.532-10.556 23.532-23.532v-32.065c0-12.976-10.557-23.532-23.532-23.532h-88.69v-40.597c0-4.142-3.358-7.5-7.5-7.5s-7.5 3.358-7.5 7.5v7.357c-9.887-3.178-17.064-12.459-17.064-23.389 0-11.959 3.955-27.228 10.851-41.89 5.993-12.743 12.031-20.445 14.656-22.589 3.069.988 8.701 6.487 14.208 19.336 5.895 13.754 9.414 30.63 9.414 45.143 0 4.142 3.358 7.5 7.5 7.5s7.5-3.358 7.5-7.5c0-16.441-3.973-35.525-10.626-51.051-7.903-18.439-18.181-28.594-28.939-28.594-9.628 0-19.315 15.332-25.747 28.194-8.781 17.563-13.818 36.316-13.818 51.451 0 19.251 13.824 35.327 32.064 38.842v17.787h-88.693c-12.976 0-23.532 10.556-23.532 23.532v48.097c0 7.035 3.107 13.354 8.016 17.67v223.33h-8.532c-12.976 0-23.533 10.557-23.533 23.532v16.032c0 12.976 10.557 23.532 23.533 23.532h240.483c12.976 0 23.533-10.557 23.533-23.532v-16.032c0-12.975-10.556-23.532-23.532-23.532zm-224.968-289.097c0-4.705 3.828-8.532 8.532-8.532h192.387c4.705 0 8.532 3.828 8.532 8.532v32.065c0 4.705-3.828 8.532-8.532 8.532s-8.532-3.828-8.532-8.532c0-12.976-10.557-23.532-23.532-23.532s-23.532 10.556-23.532 23.532v56.113c0 4.705-3.828 8.532-8.532 8.532s-8.532-3.828-8.532-8.532v-16.032c0-12.976-10.557-23.532-23.532-23.532s-23.532 10.556-23.532 23.532v64.129c0 4.705-3.828 8.532-8.532 8.532s-8.532-3.828-8.532-8.532v-96.194c0-12.976-10.557-23.532-23.532-23.532s-23.532 10.557-23.532 23.532v8.016c0 4.705-3.828 8.532-8.532 8.532s-8.532-3.828-8.532-8.532v-48.097z" transform="matrix(0.13671875 0 0 0.13671875 315 140)" id="L1_122" />
        <g transform="matrix(0.09765625 0 0 0.09765625 62.5 237.5)" id="L1_123">
            <path d="m219.621 41.984c9.829 3.276 22.749 5.081 36.381 5.081s26.552-1.804 36.381-5.081c15.882-5.294 19.215-12.956 19.215-18.452s-3.333-13.158-19.215-18.452c-9.829-3.276-22.749-5.08-36.381-5.08s-26.553 1.804-36.381 5.081c-15.882 5.294-19.215 12.956-19.215 18.452s3.333 13.157 19.215 18.451zm36.381-26.984c23.425 0 37.009 5.536 40.158 8.532-3.149 2.996-16.733 8.532-40.158 8.532s-37.009-5.536-40.158-8.532c3.149-2.996 16.733-8.532 40.158-8.532z" />
            <path d="m231.954 135.242c4.142 0 7.5-3.358 7.5-7.5v-8.016c0-4.142-3.358-7.5-7.5-7.5s-7.5 3.358-7.5 7.5v8.016c0 4.142 3.358 7.5 7.5 7.5z" />
            <path d="m280.05 135.242c4.142 0 7.5-3.358 7.5-7.5v-8.016c0-4.142-3.358-7.5-7.5-7.5s-7.5 3.358-7.5 7.5v8.016c0 4.142 3.358 7.5 7.5 7.5z" />
            <path d="m487.946 127.511c-.072-2.351-1.244-4.532-3.164-5.891-1.919-1.359-4.366-1.739-6.607-1.025l-172.012 54.731-1.873-6.244c9.541-11.128 15.324-25.567 15.324-41.341 0-35.076-28.537-63.613-63.613-63.613-35.077 0-63.613 28.537-63.613 63.613 0 15.773 5.784 30.213 15.325 41.341l-1.873 6.244-172.016-54.731c-2.241-.713-4.688-.333-6.607 1.025-1.92 1.359-3.091 3.54-3.164 5.891-.023.758-.435 18.783 11.415 37.66 5.868 9.348 13.316 16.688 21.601 22.457 1.043 5.241 4.513 18.175 14.85 30.382 9.41 11.111 21.167 17.829 33.478 21.671 3.089 14.198 10.221 24.944 21.23 31.969 11.109 7.088 24.292 9.04 35.444 9.04 4.57 0 8.784-.33 12.388-.767l-61.917 206.388c-.681 2.271-.249 4.73 1.167 6.632 1.415 1.902 3.646 3.023 6.017 3.023 15.356 0 22.546 3.384 30.871 7.302 8.695 4.092 18.55 8.73 37.259 8.73 18.704 0 28.557-4.638 37.249-8.73 8.323-3.918 15.51-7.302 30.86-7.302 15.363 0 22.556 3.384 30.885 7.303 8.698 4.092 18.556 8.729 37.271 8.729s28.572-4.638 37.27-8.729c8.329-3.918 15.522-7.303 30.885-7.303 2.371 0 4.602-1.121 6.017-3.023s1.848-4.361 1.167-6.632l-61.916-206.388c3.604.436 7.816.766 12.385.766 11.151 0 24.336-1.953 35.444-9.04 11.009-7.025 18.141-17.771 21.23-31.969 12.312-3.843 24.069-10.561 33.478-21.671 10.337-12.207 13.807-25.141 14.85-30.382 8.285-5.769 15.733-13.11 21.601-22.457 11.849-18.876 11.438-36.901 11.414-37.659zm-231.944-48.382c26.805 0 48.613 21.808 48.613 48.613 0 26.806-21.808 48.613-48.613 48.613-26.806 0-48.613-21.808-48.613-48.613s21.807-48.613 48.613-48.613zm-90.66 186.495c-8.702.349-21.082-.516-30.646-6.619-5.823-3.715-9.996-8.919-12.637-15.761 5.183.655 10.323.931 15.292.931 5.125 0 10.07-.291 14.687-.752 4.122-.412 7.129-4.087 6.717-8.209s-4.09-7.127-8.209-6.717c-47.341 4.734-66.496-15.626-74.117-30.538 14.439 5.792 29.64 8.389 42.718 9.406.198.015.394.023.59.023 3.878 0 7.163-2.987 7.469-6.919.321-4.129-2.766-7.738-6.896-8.059-60.84-4.732-76.157-36.972-79.993-54.008l161.213 51.295-22.289 74.296c-3.028.598-7.994 1.394-13.899 1.631zm298.485-108.427c-12.963 20.651-37.233 32.499-72.136 35.213-4.13.321-7.217 3.93-6.896 8.059.306 3.932 3.591 6.919 7.469 6.919.195 0 .392-.008.59-.023 13.077-1.017 28.279-3.615 42.718-9.407-7.621 14.913-26.775 35.272-74.117 30.539-4.125-.417-7.797 2.595-8.209 6.717s2.595 7.797 6.717 8.209c4.618.462 9.56.752 14.687.752 4.968 0 10.109-.276 15.292-.931-2.635 6.825-6.792 12.02-12.593 15.733-14.938 9.564-36.548 6.581-44.588 5.007l-10.259-34.197c-1.19-3.968-5.37-6.219-9.339-5.028-3.967 1.19-6.219 5.371-5.028 9.339l62.798 209.327c-6.405 1.714-11.393 4.059-15.927 6.192-8.329 3.918-15.522 7.303-30.885 7.303s-22.556-3.384-30.885-7.303c-8.698-4.092-18.556-8.729-37.271-8.729-18.704 0-28.557 4.638-37.249 8.73l-1.191.56c-3.75 1.758-5.366 6.224-3.608 9.974 1.757 3.751 6.223 5.367 9.974 3.608l1.214-.571c8.322-3.918 15.51-7.302 30.86-7.302 15.363 0 22.556 3.384 30.885 7.303 8.698 4.092 18.556 8.729 37.271 8.729s28.573-4.638 37.271-8.729c4.366-2.054 8.551-4.018 13.854-5.388l7.095 23.65c-12.555 1.292-20.323 4.946-27.335 8.245-8.329 3.918-15.522 7.303-30.884 7.303-15.363 0-22.556-3.384-30.885-7.303-8.698-4.092-18.556-8.729-37.271-8.729-18.704 0-28.557 4.638-37.249 8.73-8.322 3.918-15.51 7.302-30.86 7.302-15.356 0-22.546-3.384-30.871-7.302-7.01-3.299-14.774-6.953-27.324-8.245l7.094-23.646c5.307 1.372 9.491 3.335 13.843 5.383 8.695 4.092 18.549 8.73 37.258 8.73 4.142 0 7.5-3.358 7.5-7.5s-3.358-7.5-7.5-7.5c-15.355 0-22.545-3.384-30.871-7.302-4.543-2.138-9.517-4.474-15.917-6.187l78.975-263.25c10.237 7.041 22.621 11.175 35.958 11.175 13.336 0 25.721-4.133 35.958-11.175l6.559 21.862c.975 3.249 3.955 5.347 7.181 5.347.713 0 1.439-.103 2.158-.318 3.967-1.19 6.219-5.371 5.028-9.339l-2.411-8.036 161.11-51.262c-1.21 5.258-3.485 11.954-7.758 18.762z" />
        </g>
        <g transform="matrix(0.17578125 0 0 0.17578125 217.5 217.5)" id="L1_124">
            <path d="m471.919 215.919c0-57.674-22.459-111.896-63.242-152.678-40.781-40.782-95.003-63.241-152.677-63.241s-111.896 22.459-152.678 63.241-63.242 95.004-63.242 152.678c0 78.515 42.25 150.247 110.614 188.482l-23.737 77.146c-2.219 7.213-.92 14.831 3.563 20.901s11.383 9.552 18.929 9.552h213.103c7.546 0 14.445-3.481 18.929-9.552 4.483-6.07 5.782-13.688 3.563-20.901l-23.737-77.146c68.363-38.234 110.612-109.967 110.612-188.482zm-102.505 277.618c-1.625 2.201-4.127 3.463-6.863 3.463h-213.102c-2.736 0-5.237-1.262-6.863-3.463s-2.097-4.963-1.292-7.578l24.052-78.169h181.308l24.052 78.168c.805 2.616.334 5.378-1.292 7.579zm-152.978-157.891v57.145h-17.064v-57.145zm134.855 57.144h-119.855v-57.145h8.532c2.286 0 4.446-1.042 5.869-2.831s1.953-4.129 1.439-6.355l-12.458-53.983 53.246-46.59 56.629 49.55v88.281c0 4.142 3.358 7.5 7.5 7.5s7.5-3.358 7.5-7.5v-91.685c0-2.163-.934-4.22-2.561-5.645l-5.455-4.773v-53.711c0-4.142-3.358-7.5-7.5-7.5h-32.064c-4.142 0-7.5 3.358-7.5 7.5v12.53l-11.609-10.158c-2.828-2.475-7.05-2.475-9.878 0l-52.134 45.617-31.812-137.854c-.786-3.402-3.816-5.813-7.308-5.813s-6.522 2.411-7.308 5.813l-36.998 160.323c-.931 4.036 1.585 8.063 5.622 8.995 4.039.933 8.063-1.585 8.995-5.622l29.689-128.655 38.669 167.565h-77.338l1.579-6.844c.931-4.036-1.586-8.063-5.622-8.994-4.034-.932-8.063 1.585-8.994 5.622l-3.699 16.03c-.514 2.227.016 4.567 1.439 6.355s3.583 2.831 5.869 2.831h40.597v57.145h-23.662c-65.202-35.189-105.629-102.786-105.629-176.87 0-110.787 90.131-200.919 200.919-200.919s200.919 90.132 200.919 200.919c0 74.084-40.427 141.681-105.628 176.871zm-14.614-144.3-17.064-14.931v-18.155h17.064z" />
            <path d="m312.113 288.581h-48.097c-4.142 0-7.5 3.358-7.5 7.5v64.129c0 4.142 3.358 7.5 7.5 7.5h48.097c4.142 0 7.5-3.358 7.5-7.5v-64.129c0-4.143-3.358-7.5-7.5-7.5zm-7.5 15v17.065h-33.097v-17.065zm-33.097 49.129v-17.064h33.097v17.064z" />
            <path d="m293.368 122.438c-2.929-2.929-7.678-2.929-10.606 0-2.929 2.929-2.929 7.678 0 10.606l8.016 8.017c1.464 1.464 3.384 2.196 5.303 2.196s3.839-.732 5.303-2.196c2.929-2.929 2.929-7.678 0-10.606z" />
            <path d="m234.665 58.31-8.016 8.017c-2.929 2.929-2.929 7.678 0 10.606 1.464 1.464 3.384 2.196 5.303 2.196s3.839-.732 5.303-2.196l8.016-8.017c2.929-2.929 2.929-7.678 0-10.606-2.929-2.929-7.678-2.93-10.606 0z" />
            <path d="m325.432 74.342c-2.929-2.929-7.678-2.929-10.606 0-2.929 2.929-2.929 7.678 0 10.606l8.016 8.017c1.464 1.464 3.384 2.196 5.303 2.196s3.839-.732 5.303-2.196c2.929-2.929 2.929-7.678 0-10.606z" />
            <path d="m354.906 138.471-8.016 8.017c-2.929 2.929-2.929 7.677 0 10.606 1.464 1.464 3.384 2.196 5.303 2.196s3.839-.732 5.303-2.196l8.016-8.017c2.929-2.929 2.929-7.677 0-10.606-2.928-2.929-7.677-2.929-10.606 0z" />
            <path d="m413.61 194.584-8.016-8.017c-2.928-2.929-7.677-2.929-10.606 0s-2.929 7.678 0 10.606l8.016 8.017c1.464 1.465 3.384 2.197 5.303 2.197s3.839-.732 5.303-2.197c2.929-2.928 2.929-7.677 0-10.606z" />
            <path d="m394.987 258.713-8.016 8.016c-2.929 2.929-2.929 7.677 0 10.606 1.464 1.464 3.384 2.197 5.303 2.197s3.839-.732 5.303-2.197l8.016-8.016c2.929-2.929 2.929-7.678 0-10.606-2.928-2.929-7.677-2.929-10.606 0z" />
            <path d="m258.713 162.52-8.016 8.016c-2.929 2.929-2.929 7.678 0 10.606 1.464 1.465 3.384 2.197 5.303 2.197s3.839-.732 5.303-2.197l8.016-8.016c2.929-2.929 2.929-7.678 0-10.606-2.928-2.93-7.677-2.93-10.606 0z" />
            <path d="m122.438 133.045c1.464 1.465 3.384 2.197 5.303 2.197s3.839-.732 5.303-2.197c2.929-2.929 2.929-7.677 0-10.606l-8.016-8.016c-2.929-2.93-7.678-2.93-10.606 0-2.929 2.929-2.929 7.677 0 10.606z" />
            <path d="m106.406 242.681-8.016 8.016c-2.929 2.929-2.929 7.677 0 10.606 1.464 1.464 3.384 2.197 5.303 2.197s3.839-.732 5.303-2.197l8.016-8.016c2.929-2.929 2.929-7.678 0-10.606-2.928-2.93-7.677-2.93-10.606 0z" />
            <path d="m133.045 170.535c-2.929-2.929-7.678-2.929-10.606 0-2.929 2.93-2.929 7.678 0 10.607l8.017 8.016c1.464 1.464 3.384 2.196 5.303 2.196s3.839-.732 5.303-2.196c2.929-2.93 2.929-7.678 0-10.607z" />
        </g>
        <path d="m496.821 102.37c-9.646-7.55-21.999-10.194-33.89-7.25l-166.413 41.179c-10.711 2.651-19.14 10.658-22.451 20.958-.674-.034-1.353-.052-2.036-.052h-32.064c-.683 0-1.361.017-2.036.052-3.311-10.3-11.74-18.308-22.451-20.958l-166.412-41.179c-11.891-2.943-24.244-.299-33.889 7.251-9.647 7.55-15.179 18.905-15.179 31.155v142.52c0 12.25 5.532 23.606 15.179 31.156 7.063 5.529 15.577 8.426 24.299 8.426 3.189 0 6.407-.387 9.591-1.175l36.803-9.107-32.132 45.9c-3.75 5.358-3.779 12.302-.072 17.691s10.203 7.846 16.547 6.26l37.477-9.369 21.826 43.651c2.657 5.314 7.948 8.577 13.865 8.577.108 0 .218-.001.327-.003 6.048-.123 11.349-3.625 13.833-9.142l61.608-136.805c9.012-3.417 15.871-10.681 18.776-19.792.676.034 1.356.052 2.04.052h32.064c.684 0 1.364-.018 2.04-.052 2.905 9.111 9.764 16.374 18.776 19.792l61.608 136.805c2.484 5.516 7.785 9.019 13.833 9.141.109.002.218.003.327.003 5.917 0 11.209-3.264 13.865-8.577l21.826-43.651 37.477 9.369c6.347 1.587 12.841-.871 16.547-6.26 3.707-5.389 3.679-12.333-.072-17.691l-32.131-45.901 36.803 9.107c3.185.788 6.401 1.175 9.591 1.175 8.721 0 17.236-2.898 24.299-8.426 9.646-7.55 15.179-18.906 15.179-31.156v-142.52c.001-12.248-5.531-23.603-15.178-31.154zm-352.954 300.382c-.063.139-.134.298-.46.304-.313.003-.403-.148-.472-.285l-24.517-49.032c-1.572-3.144-5.116-4.775-8.527-3.922l-43.313 10.828c-.195.049-.348.087-.551-.208s-.112-.425.002-.588l41.988-59.983 92.49-22.887zm68.011-144.04-166.413 41.179c-7.38 1.827-15.051.186-21.041-4.501-5.989-4.688-9.424-11.739-9.424-19.344v-142.52c0-7.605 3.435-14.656 9.424-19.344s13.66-6.329 21.041-4.502l166.414 41.179c5.283 1.307 9.502 5.099 11.432 10.036-8.609 4.014-15.539 11.034-19.439 19.706l-107.134-15.304c-4.102-.586-7.899 2.264-8.485 6.364-.585 4.1 2.264 7.899 6.364 8.485l105.825 15.118c-.019.5-.038 1.001-.038 1.506v16.032c0 .505.019 1.006.038 1.506l-105.825 15.118c-4.101.586-6.95 4.385-6.364 8.485.535 3.741 3.743 6.44 7.416 6.44.353 0 .71-.025 1.07-.076l107.134-15.305c3.901 8.675 10.834 15.697 19.448 19.71-1.918 4.942-6.111 8.713-11.443 10.032zm28.09-21.346c-13.545 0-24.564-11.02-24.564-24.564v-16.032c0-13.545 11.02-24.564 24.564-24.564h32.064c13.545 0 24.564 11.02 24.564 24.564v16.032c0 13.545-11.02 24.564-24.564 24.564zm257.032 38.68c0 7.605-3.435 14.656-9.424 19.344s-13.659 6.329-21.041 4.501l-104.522-25.864c-4.022-.994-8.087 1.458-9.082 5.479s1.458 8.087 5.479 9.082l45.573 11.277 41.988 59.982c.115.164.206.293.002.589-.202.295-.355.257-.551.208l-43.313-10.828c-3.41-.853-6.956.778-8.527 3.922l-24.517 49.033c-.069.137-.155.291-.472.285-.326-.007-.397-.165-.46-.304l-56.64-125.773 14.849 3.675c.605.15 1.211.221 1.808.221 3.367 0 6.429-2.284 7.274-5.7.995-4.021-1.458-8.087-5.479-9.082l-29.823-7.38c-5.332-1.319-9.525-5.091-11.441-10.032 8.613-4.013 15.546-11.035 19.448-19.71l107.134 15.305c.36.052.717.076 1.07.076 3.672 0 6.881-2.7 7.416-6.44.585-4.1-2.264-7.899-6.364-8.485l-105.825-15.118c.019-.5.038-1.001.038-1.506v-16.033c0-.505-.019-1.006-.038-1.506l105.825-15.118c4.101-.586 6.95-4.385 6.364-8.485-.586-4.101-4.389-6.951-8.485-6.364l-107.134 15.305c-3.9-8.672-10.829-15.692-19.439-19.706 1.93-4.936 6.149-8.729 11.432-10.036l166.413-41.179c7.384-1.828 15.052-.186 21.042 4.502 5.989 4.688 9.424 11.738 9.424 19.344v142.519z" transform="matrix(0.13206017156295854 -0.03538541632261026 0.03538541632261026 0.13206017156295854 131.84655830105424 150.50260315532645)" id="L1_125" />
    </defs>
    <g fi:class="KUsePattern" opacity="0.5" fill="#71CB78">
        <pattern id="pattern_L1_116" width="350" height="350" patternUnits="userSpaceOnUse">
            <use xlink:href="#L1_116" x="-350" y="-350" />
            <use xlink:href="#L1_116" x="0" y="-350" />
            <use xlink:href="#L1_116" x="350" y="-350" />
            <use xlink:href="#L1_116" x="-350" y="0" />
            <use xlink:href="#L1_116" x="0" y="0" />
            <use xlink:href="#L1_116" x="350" y="0" />
            <use xlink:href="#L1_116" x="-350" y="350" />
            <use xlink:href="#L1_116" x="0" y="350" />
            <use xlink:href="#L1_116" x="350" y="350" />
        </pattern>
        <rect x="0" y="0" width="100%" height="100%" fill="url(#pattern_L1_116)" />
    </g>
    <g fi:class="KUsePattern" opacity="0.5" fill="#71CB78">
        <pattern id="pattern_L1_117" width="350" height="350" patternUnits="userSpaceOnUse">
            <use xlink:href="#L1_117" x="-350" y="-350" />
            <use xlink:href="#L1_117" x="0" y="-350" />
            <use xlink:href="#L1_117" x="350" y="-350" />
            <use xlink:href="#L1_117" x="-350" y="0" />
            <use xlink:href="#L1_117" x="0" y="0" />
            <use xlink:href="#L1_117" x="350" y="0" />
            <use xlink:href="#L1_117" x="-350" y="350" />
            <use xlink:href="#L1_117" x="0" y="350" />
            <use xlink:href="#L1_117" x="350" y="350" />
        </pattern>
        <rect x="0" y="0" width="100%" height="100%" fill="url(#pattern_L1_117)" />
    </g>
    <g fi:class="KUsePattern" opacity="0.5" fill="#71CB78">
        <pattern id="pattern_L1_118" width="350" height="350" patternUnits="userSpaceOnUse">
            <use xlink:href="#L1_118" x="-350" y="-350" />
            <use xlink:href="#L1_118" x="0" y="-350" />
            <use xlink:href="#L1_118" x="350" y="-350" />
            <use xlink:href="#L1_118" x="-350" y="0" />
            <use xlink:href="#L1_118" x="0" y="0" />
            <use xlink:href="#L1_118" x="350" y="0" />
            <use xlink:href="#L1_118" x="-350" y="350" />
            <use xlink:href="#L1_118" x="0" y="350" />
            <use xlink:href="#L1_118" x="350" y="350" />
        </pattern>
        <rect x="0" y="0" width="100%" height="100%" fill="url(#pattern_L1_118)" />
    </g>
    <g fi:class="KUsePattern" opacity="0.5" fill="#71CB78">
        <pattern id="pattern_L1_119" width="350" height="350" patternUnits="userSpaceOnUse">
            <use xlink:href="#L1_119" x="-350" y="-350" />
            <use xlink:href="#L1_119" x="0" y="-350" />
            <use xlink:href="#L1_119" x="350" y="-350" />
            <use xlink:href="#L1_119" x="-350" y="0" />
            <use xlink:href="#L1_119" x="0" y="0" />
            <use xlink:href="#L1_119" x="350" y="0" />
            <use xlink:href="#L1_119" x="-350" y="350" />
            <use xlink:href="#L1_119" x="0" y="350" />
            <use xlink:href="#L1_119" x="350" y="350" />
        </pattern>
        <rect x="0" y="0" width="100%" height="100%" fill="url(#pattern_L1_119)" />
    </g>
    <g fi:class="KUsePattern" opacity="0.5" fill="#71CB78">
        <pattern id="pattern_L1_120" width="350" height="350" patternUnits="userSpaceOnUse">
            <use xlink:href="#L1_120" x="-350" y="-350" />
            <use xlink:href="#L1_120" x="0" y="-350" />
            <use xlink:href="#L1_120" x="350" y="-350" />
            <use xlink:href="#L1_120" x="-350" y="0" />
            <use xlink:href="#L1_120" x="0" y="0" />
            <use xlink:href="#L1_120" x="350" y="0" />
            <use xlink:href="#L1_120" x="-350" y="350" />
            <use xlink:href="#L1_120" x="0" y="350" />
            <use xlink:href="#L1_120" x="350" y="350" />
        </pattern>
        <rect x="0" y="0" width="100%" height="100%" fill="url(#pattern_L1_120)" />
    </g>
    <g fi:class="KUsePattern" opacity="0.5" fill="#71CB78">
        <pattern id="pattern_L1_121" width="350" height="350" patternUnits="userSpaceOnUse">
            <use xlink:href="#L1_121" x="-350" y="-350" />
            <use xlink:href="#L1_121" x="0" y="-350" />
            <use xlink:href="#L1_121" x="350" y="-350" />
            <use xlink:href="#L1_121" x="-350" y="0" />
            <use xlink:href="#L1_121" x="0" y="0" />
            <use xlink:href="#L1_121" x="350" y="0" />
            <use xlink:href="#L1_121" x="-350" y="350" />
            <use xlink:href="#L1_121" x="0" y="350" />
            <use xlink:href="#L1_121" x="350" y="350" />
        </pattern>
        <rect x="0" y="0" width="100%" height="100%" fill="url(#pattern_L1_121)" />
    </g>
    <g fi:class="KUsePattern" opacity="0.5" fill="#71CB78">
        <pattern id="pattern_L1_122" width="350" height="350" patternUnits="userSpaceOnUse">
            <use xlink:href="#L1_122" x="-350" y="-350" />
            <use xlink:href="#L1_122" x="0" y="-350" />
            <use xlink:href="#L1_122" x="350" y="-350" />
            <use xlink:href="#L1_122" x="-350" y="0" />
            <use xlink:href="#L1_122" x="0" y="0" />
            <use xlink:href="#L1_122" x="350" y="0" />
            <use xlink:href="#L1_122" x="-350" y="350" />
            <use xlink:href="#L1_122" x="0" y="350" />
            <use xlink:href="#L1_122" x="350" y="350" />
        </pattern>
        <rect x="0" y="0" width="100%" height="100%" fill="url(#pattern_L1_122)" />
    </g>
    <g fi:class="KUsePattern" opacity="0.5" fill="#599C5D">
        <pattern id="pattern_L1_123" width="350" height="350" patternUnits="userSpaceOnUse">
            <use xlink:href="#L1_123" x="-350" y="-350" />
            <use xlink:href="#L1_123" x="0" y="-350" />
            <use xlink:href="#L1_123" x="350" y="-350" />
            <use xlink:href="#L1_123" x="-350" y="0" />
            <use xlink:href="#L1_123" x="0" y="0" />
            <use xlink:href="#L1_123" x="350" y="0" />
            <use xlink:href="#L1_123" x="-350" y="350" />
            <use xlink:href="#L1_123" x="0" y="350" />
            <use xlink:href="#L1_123" x="350" y="350" />
        </pattern>
        <rect x="0" y="0" width="100%" height="100%" fill="url(#pattern_L1_123)" />
    </g>
    <g fi:class="KUsePattern" opacity="0.5" fill="#70BA7F">
        <pattern id="pattern_L1_124" width="350" height="350" patternUnits="userSpaceOnUse">
            <use xlink:href="#L1_124" x="-350" y="-350" />
            <use xlink:href="#L1_124" x="0" y="-350" />
            <use xlink:href="#L1_124" x="350" y="-350" />
            <use xlink:href="#L1_124" x="-350" y="0" />
            <use xlink:href="#L1_124" x="0" y="0" />
            <use xlink:href="#L1_124" x="350" y="0" />
            <use xlink:href="#L1_124" x="-350" y="350" />
            <use xlink:href="#L1_124" x="0" y="350" />
            <use xlink:href="#L1_124" x="350" y="350" />
        </pattern>
        <rect x="0" y="0" width="100%" height="100%" fill="url(#pattern_L1_124)" />
    </g>
    <g fi:class="KUsePattern" opacity="0.5" fill="#89D997">
        <pattern id="pattern_L1_125" width="350" height="350" patternUnits="userSpaceOnUse">
            <use xlink:href="#L1_125" x="-350" y="-350" />
            <use xlink:href="#L1_125" x="0" y="-350" />
            <use xlink:href="#L1_125" x="350" y="-350" />
            <use xlink:href="#L1_125" x="-350" y="0" />
            <use xlink:href="#L1_125" x="0" y="0" />
            <use xlink:href="#L1_125" x="350" y="0" />
            <use xlink:href="#L1_125" x="-350" y="350" />
            <use xlink:href="#L1_125" x="0" y="350" />
            <use xlink:href="#L1_125" x="350" y="350" />
        </pattern>
        <rect x="0" y="0" width="100%" height="100%" fill="url(#pattern_L1_125)" />
    </g>
</svg>