<?xml version="1.0" encoding="utf-8"?>
<!-- Designed by Vexels.com - 2016 All Rights Reserved - https://vexels.com/terms-and-conditions/  -->

<svg version="1.1" id="Capa_1" xmlns="http://www.w3.org/2000/svg" xmlns:xlink="http://www.w3.org/1999/xlink" x="0px" y="0px"
	 width="1200px" height="1200px" viewBox="0 0 1200 1200" enable-background="new 0 0 1200 1200" xml:space="preserve">
<g>
	<g>
		<polygon fill="#FFD371" points="581.386,271.521 1058.99,360.392 634.209,469.84 141.011,378.944 		"/>
		<path opacity="0.2" fill="#B66953" enable-background="new    " d="M403.619,345.11c0,0-96.432,30.256-31.514,59.323
			C431.218,412.551,450.122,368.422,403.619,345.11z"/>
		
			<linearGradient id="SVGID_1_" gradientUnits="userSpaceOnUse" x1="540.6946" y1="889.1182" x2="716.7893" y2="1213.832" gradientTransform="matrix(1 0 0 -1 -8.3599 1224.0547)">
			<stop  offset="0" style="stop-color:#A00707"/>
			<stop  offset="0.3317" style="stop-color:#F40302"/>
			<stop  offset="0.3756" style="stop-color:#FFA9B2"/>
			<stop  offset="0.4069" style="stop-color:#FFA5AD"/>
			<stop  offset="0.4429" style="stop-color:#FF9A9F"/>
			<stop  offset="0.481" style="stop-color:#FF8788"/>
			<stop  offset="0.5122" style="stop-color:#FF7370"/>
			<stop  offset="0.5415" style="stop-color:#F40302"/>
			<stop  offset="0.6537" style="stop-color:#BA0707"/>
			<stop  offset="0.6548" style="stop-color:#C80606"/>
			<stop  offset="0.6571" style="stop-color:#DB0504"/>
			<stop  offset="0.6596" style="stop-color:#E90403"/>
			<stop  offset="0.6628" style="stop-color:#F20302"/>
			<stop  offset="0.6683" style="stop-color:#F40302"/>
			<stop  offset="0.6683" style="stop-color:#F40302"/>
			<stop  offset="0.6683" style="stop-color:#F40302"/>
			<stop  offset="0.6687" style="stop-color:#F10302"/>
			<stop  offset="0.6731" style="stop-color:#D80504"/>
			<stop  offset="0.6777" style="stop-color:#C50606"/>
			<stop  offset="0.6825" style="stop-color:#BB0707"/>
			<stop  offset="0.6878" style="stop-color:#B70707"/>
			<stop  offset="0.7275" style="stop-color:#BA0707"/>
			<stop  offset="0.7518" style="stop-color:#C20606"/>
			<stop  offset="0.7721" style="stop-color:#D00505"/>
			<stop  offset="0.7899" style="stop-color:#E50403"/>
			<stop  offset="0.8" style="stop-color:#F40302"/>
			<stop  offset="1" style="stop-color:#BA0605"/>
		</linearGradient>
		<path fill="url(#SVGID_1_)" d="M522.177,222.657c-53.224,24.845-75.447,56.572-79.663,76.398
			c-4.215,19.827,25.76,55.838,78.212,50.321c52.454-5.517,141.711-9.994,148.287-68.952
			C675.592,221.468,572.452,199.188,522.177,222.657z"/>
		
			<linearGradient id="SVGID_2_" gradientUnits="userSpaceOnUse" x1="289.7" y1="964.8174" x2="386.1166" y2="952.186" gradientTransform="matrix(1 0 0 -1 -8.3599 1224.0547)">
			<stop  offset="0" style="stop-color:#C83333"/>
			<stop  offset="0.1854" style="stop-color:#F63938"/>
			<stop  offset="0.195" style="stop-color:#F43938"/>
			<stop  offset="0.3094" style="stop-color:#E73837"/>
			<stop  offset="0.4098" style="stop-color:#E23837"/>
			<stop  offset="0.4224" style="stop-color:#E63736"/>
			<stop  offset="0.4617" style="stop-color:#ED3635"/>
			<stop  offset="0.5707" style="stop-color:#EF3635"/>
			<stop  offset="0.6131" style="stop-color:#F4484A"/>
			<stop  offset="0.6862" style="stop-color:#FC626A"/>
			<stop  offset="0.7268" style="stop-color:#FF6C76"/>
			<stop  offset="0.8097" style="stop-color:#F25E66"/>
			<stop  offset="0.9721" style="stop-color:#CF3A3B"/>
			<stop  offset="1" style="stop-color:#C83333"/>
		</linearGradient>
		<path fill="url(#SVGID_2_)" d="M432.68,261.589c0,0-33.878-8.743-59.793-5.152c-25.915,3.591-42.308,19.827-45.742,44.179
			c3.747-24.977,4.06-30.285,4.371-34.188c0.314-3.903,11.552-28.257,42.151-29.194c30.599-0.936,59.948,13.896,59.948,13.896
			L432.68,261.589z"/>
		
			<linearGradient id="SVGID_3_" gradientUnits="userSpaceOnUse" x1="408.1736" y1="985.4541" x2="456.1707" y2="1078.5013" gradientTransform="matrix(1 0 0 -1 -8.3599 1224.0547)">
			<stop  offset="0" style="stop-color:#C83333"/>
			<stop  offset="0.1854" style="stop-color:#F63938"/>
			<stop  offset="0.195" style="stop-color:#F43938"/>
			<stop  offset="0.3094" style="stop-color:#E73837"/>
			<stop  offset="0.4098" style="stop-color:#E23837"/>
			<stop  offset="0.4224" style="stop-color:#E63736"/>
			<stop  offset="0.4617" style="stop-color:#ED3635"/>
			<stop  offset="0.5707" style="stop-color:#EF3635"/>
			<stop  offset="0.6131" style="stop-color:#F4484A"/>
			<stop  offset="0.6862" style="stop-color:#FC626A"/>
			<stop  offset="0.7268" style="stop-color:#FF6C76"/>
			<stop  offset="0.8097" style="stop-color:#F25E66"/>
			<stop  offset="0.9721" style="stop-color:#CF3A3B"/>
			<stop  offset="1" style="stop-color:#C83333"/>
		</linearGradient>
		<path fill="url(#SVGID_3_)" d="M433.616,247.498c0,0-22.011-8.545-29.349-30.713c-7.336-22.168,4.996-44.115,27.476-49.221
			c22.479-5.105,51.515,12.691,51.515,12.691l-3.435-8.432c0,0-24.82-23.26-56.979-25.602c-32.161-2.341-50.581,28.88-44.18,52.454
			c6.399,23.571,24.819,42.519,39.497,51.83C429,255.821,433.616,247.498,433.616,247.498z"/>
		
			<linearGradient id="SVGID_4_" gradientUnits="userSpaceOnUse" x1="458.4216" y1="1099.3916" x2="544.3137" y2="1151.6003" gradientTransform="matrix(1 0 0 -1 -8.3599 1224.0547)">
			<stop  offset="0" style="stop-color:#C83333"/>
			<stop  offset="0.1854" style="stop-color:#F63938"/>
			<stop  offset="0.195" style="stop-color:#F43938"/>
			<stop  offset="0.3094" style="stop-color:#E73837"/>
			<stop  offset="0.4098" style="stop-color:#E23837"/>
			<stop  offset="0.4224" style="stop-color:#E63736"/>
			<stop  offset="0.4617" style="stop-color:#ED3635"/>
			<stop  offset="0.5707" style="stop-color:#EF3635"/>
			<stop  offset="0.6131" style="stop-color:#F4484A"/>
			<stop  offset="0.6862" style="stop-color:#FC626A"/>
			<stop  offset="0.7268" style="stop-color:#FF6C76"/>
			<stop  offset="0.8097" style="stop-color:#F25E66"/>
			<stop  offset="0.9721" style="stop-color:#CF3A3B"/>
			<stop  offset="1" style="stop-color:#C83333"/>
		</linearGradient>
		<path fill="url(#SVGID_4_)" d="M461.56,151.062c0,0-12.176-21.388-10.303-35.595c1.874-14.205,5.464-32.159,28.881-40.589
			c23.417-8.431,46.112,0.486,59.01,8.743c12.896,8.257,28.256,28.725,28.256,28.725s-12.489-27.79-23.103-38.873
			c-10.618-11.084-32.784-32.783-75.56-17.953c-42.776,14.83-26.071,72.906-7.807,95.541"/>
		
			<linearGradient id="SVGID_5_" gradientUnits="userSpaceOnUse" x1="335.1101" y1="907.5312" x2="406.2273" y2="907.5312" gradientTransform="matrix(1 0 0 -1 -8.3599 1224.0547)">
			<stop  offset="0" style="stop-color:#C83333"/>
			<stop  offset="0.1854" style="stop-color:#F63938"/>
			<stop  offset="0.195" style="stop-color:#F43938"/>
			<stop  offset="0.3094" style="stop-color:#E73837"/>
			<stop  offset="0.4098" style="stop-color:#E23837"/>
			<stop  offset="0.4224" style="stop-color:#E63736"/>
			<stop  offset="0.4617" style="stop-color:#ED3635"/>
			<stop  offset="0.5707" style="stop-color:#EF3635"/>
			<stop  offset="0.6131" style="stop-color:#F4484A"/>
			<stop  offset="0.6862" style="stop-color:#FC626A"/>
			<stop  offset="0.7268" style="stop-color:#FF6C76"/>
			<stop  offset="0.8097" style="stop-color:#F25E66"/>
			<stop  offset="0.9721" style="stop-color:#CF3A3B"/>
			<stop  offset="1" style="stop-color:#C83333"/>
		</linearGradient>
		<path fill="url(#SVGID_5_)" d="M397.867,319.662c0,0-20.608,3.591-38.872-4.838c-18.265-8.43-27.978-27.426-28.976-34.398
			c-0.831,6.145-2.248,14.26-2.873,18.63c-0.625,4.371-2.81,21.388,16.862,39.185c19.67,17.798,48.396,14.05,48.396,14.05
			L397.867,319.662z"/>
		
			<linearGradient id="SVGID_6_" gradientUnits="userSpaceOnUse" x1="1014.9065" y1="898.3027" x2="636.8978" y2="898.3027" gradientTransform="matrix(1 0 0 -1 -8.3599 1224.0547)">
			<stop  offset="0" style="stop-color:#A00707"/>
			<stop  offset="0.3317" style="stop-color:#F40302"/>
			<stop  offset="0.3756" style="stop-color:#FFA9B2"/>
			<stop  offset="0.4069" style="stop-color:#FFA5AD"/>
			<stop  offset="0.4429" style="stop-color:#FF9A9F"/>
			<stop  offset="0.481" style="stop-color:#FF8788"/>
			<stop  offset="0.5122" style="stop-color:#FF7370"/>
			<stop  offset="0.5415" style="stop-color:#F40302"/>
			<stop  offset="0.6537" style="stop-color:#BA0707"/>
			<stop  offset="0.6548" style="stop-color:#C80606"/>
			<stop  offset="0.6571" style="stop-color:#DB0504"/>
			<stop  offset="0.6596" style="stop-color:#E90403"/>
			<stop  offset="0.6628" style="stop-color:#F20302"/>
			<stop  offset="0.6683" style="stop-color:#F40302"/>
			<stop  offset="0.6683" style="stop-color:#F40302"/>
			<stop  offset="0.6683" style="stop-color:#F40302"/>
			<stop  offset="0.6687" style="stop-color:#F10302"/>
			<stop  offset="0.6731" style="stop-color:#D80504"/>
			<stop  offset="0.6777" style="stop-color:#C50606"/>
			<stop  offset="0.6825" style="stop-color:#BB0707"/>
			<stop  offset="0.6878" style="stop-color:#B70707"/>
			<stop  offset="0.7275" style="stop-color:#BA0707"/>
			<stop  offset="0.7518" style="stop-color:#C20606"/>
			<stop  offset="0.7721" style="stop-color:#D00505"/>
			<stop  offset="0.7899" style="stop-color:#E50403"/>
			<stop  offset="0.8" style="stop-color:#F40302"/>
			<stop  offset="1" style="stop-color:#BA0605"/>
		</linearGradient>
		<polygon fill="url(#SVGID_6_)" points="709.519,345.11 832.098,318.172 768.804,306.396 669.014,323.3 		"/>
		
			<linearGradient id="SVGID_7_" gradientUnits="userSpaceOnUse" x1="511.4797" y1="813.1133" x2="537.2904" y2="924.6796" gradientTransform="matrix(1 0 0 -1 -8.3599 1224.0547)">
			<stop  offset="0" style="stop-color:#A00707"/>
			<stop  offset="0.1854" style="stop-color:#DB0403"/>
			<stop  offset="0.2242" style="stop-color:#D30504"/>
			<stop  offset="0.3231" style="stop-color:#C60605"/>
			<stop  offset="0.4098" style="stop-color:#C10706"/>
			<stop  offset="0.4302" style="stop-color:#C90504"/>
			<stop  offset="0.4674" style="stop-color:#D00302"/>
			<stop  offset="0.5707" style="stop-color:#D20302"/>
			<stop  offset="0.6232" style="stop-color:#DA0403"/>
			<stop  offset="0.7268" style="stop-color:#E60504"/>
			<stop  offset="0.8067" style="stop-color:#D60505"/>
			<stop  offset="0.9631" style="stop-color:#AB0707"/>
			<stop  offset="1" style="stop-color:#A00707"/>
		</linearGradient>
		<path fill="url(#SVGID_7_)" d="M557.988,386.324c0,0-24.564,8.951-33.098,12.281c-8.533,3.331-15.059,4.671-28.026,1.377
			c-12.968-3.293-34.417-26.738-29.422-47.361c4.995-20.625,49.746-29.573,64.941-24.786
			C547.579,332.62,557.988,386.324,557.988,386.324z"/>
		
			<linearGradient id="SVGID_8_" gradientUnits="userSpaceOnUse" x1="860.0745" y1="977.5635" x2="723.9424" y2="898.8817" gradientTransform="matrix(1 0 0 -1 -8.3599 1224.0547)">
			<stop  offset="0" style="stop-color:#A00707"/>
			<stop  offset="0.1854" style="stop-color:#DB0403"/>
			<stop  offset="0.2242" style="stop-color:#D30504"/>
			<stop  offset="0.3231" style="stop-color:#C60605"/>
			<stop  offset="0.4098" style="stop-color:#C10706"/>
			<stop  offset="0.4302" style="stop-color:#C90504"/>
			<stop  offset="0.4674" style="stop-color:#D00302"/>
			<stop  offset="0.5707" style="stop-color:#D20302"/>
			<stop  offset="0.6232" style="stop-color:#DA0403"/>
			<stop  offset="0.7268" style="stop-color:#E60504"/>
			<stop  offset="0.8067" style="stop-color:#D60505"/>
			<stop  offset="0.9631" style="stop-color:#AB0707"/>
			<stop  offset="1" style="stop-color:#A00707"/>
		</linearGradient>
		<path fill="url(#SVGID_8_)" d="M858.974,229.961c0,0,9.267,3.032,13.896,8.821c4.627,5.791,8.681,24.827-31.176,49.294
			c-39.852,24.466-123.64,39.757-123.64,39.757l-12.905-26.227c0,0,69.105-48.916,101.578-64.11
			C839.198,222.302,858.974,229.961,858.974,229.961z"/>
		
			<linearGradient id="SVGID_9_" gradientUnits="userSpaceOnUse" x1="733.8918" y1="833.3223" x2="702.6694" y2="920.1209" gradientTransform="matrix(1 0 0 -1 -8.3599 1224.0547)">
			<stop  offset="0" style="stop-color:#A00707"/>
			<stop  offset="0.1854" style="stop-color:#DB0403"/>
			<stop  offset="0.2242" style="stop-color:#D30504"/>
			<stop  offset="0.3231" style="stop-color:#C60605"/>
			<stop  offset="0.4098" style="stop-color:#C10706"/>
			<stop  offset="0.4302" style="stop-color:#C90504"/>
			<stop  offset="0.4674" style="stop-color:#D00302"/>
			<stop  offset="0.5707" style="stop-color:#D20302"/>
			<stop  offset="0.6232" style="stop-color:#DA0403"/>
			<stop  offset="0.7268" style="stop-color:#E60504"/>
			<stop  offset="0.8067" style="stop-color:#D60505"/>
			<stop  offset="0.9631" style="stop-color:#AB0707"/>
			<stop  offset="1" style="stop-color:#A00707"/>
		</linearGradient>
		<path fill="url(#SVGID_9_)" d="M690.578,329.916c0,0,18.11,13.53,37.26,19.463c19.148,5.931,56.475,16.34,69.867,15.298
			c-21.784,17.276-52.589,28.309-69.867,29.557c-17.277,1.25-66.514-12.489-92.477-27.476
			C639.792,343.861,690.578,329.916,690.578,329.916z"/>
		<polygon fill="#FFD377" points="163.959,522.71 622.153,626.593 625.864,1150 187.147,992.032 		"/>
		
			<linearGradient id="SVGID_10_" gradientUnits="userSpaceOnUse" x1="404.1926" y1="651.3662" x2="396.8976" y2="622.1075" gradientTransform="matrix(1 0 0 -1 -8.3599 1224.0547)">
			<stop  offset="0" style="stop-color:#000707;stop-opacity:0.3"/>
			<stop  offset="0.7939" style="stop-color:#000605;stop-opacity:0"/>
		</linearGradient>
		<polygon opacity="0.6" fill="url(#SVGID_10_)" enable-background="new    " points="163.959,506.013 165.629,556.593 
			622.393,660.673 622.153,626.593 		"/>
		<path opacity="0.5" fill="#B66953" enable-background="new    " d="M431.22,580.736c0,0-3.33,45.793-3.33,183.172
			c0,137.376-7.217,295.848,10.547,318.602c-41.621-14.987-67.165-225.463-73.826-254.966
			c-6.661-29.502-2.303-259.867-2.303-259.867L431.22,580.736z"/>
		<polygon fill="#F4AB50" points="1037.681,505.087 1020.058,970.698 625.864,1150 622.153,626.593 		"/>
		
			<linearGradient id="SVGID_11_" gradientUnits="userSpaceOnUse" x1="835.3596" y1="653.8604" x2="842.9019" y2="630.6476" gradientTransform="matrix(1 0 0 -1 -8.3599 1224.0547)">
			<stop  offset="0" style="stop-color:#000707;stop-opacity:0.3"/>
			<stop  offset="0.7939" style="stop-color:#000605;stop-opacity:0"/>
		</linearGradient>
		<polygon opacity="0.6" fill="url(#SVGID_11_)" enable-background="new    " points="622.153,604.054 622.153,626.593 
			622.153,670.854 1036.329,540.768 1037.681,487.488 		"/>
		<path opacity="0.5" fill="#B66953" enable-background="new    " d="M829.917,573.334l-16.416,5.013c0,0-3.652,181.4-6.149,277.562
			c-2.499,96.166-1.325,212.142-9.463,215.844c43.983-20.009,51.3-142.157,53.799-175.253
			C854.185,863.402,829.917,573.334,829.917,573.334z"/>
		<polygon fill="#F5BA5C" points="1058.99,360.392 1053.449,505.087 634.209,633.085 634.209,469.84 		"/>
		<polygon fill="#FFD777" points="141.011,378.944 634.209,469.84 634.209,633.085 149.117,522.71 		"/>
		<g>
			<path opacity="0.7" fill="#FFFFFF" enable-background="new    " d="M155.459,382.818l471.092,82.117
				c2.517,0.438,4.203,2.835,3.765,5.354c-0.438,2.518-2.836,4.203-5.354,3.764c-0.021-0.003-0.067-0.011-0.088-0.016
				L155.459,382.818z"/>
		</g>
		
			<linearGradient id="SVGID_12_" gradientUnits="userSpaceOnUse" x1="453.7278" y1="840.6162" x2="429.3757" y2="703.8696" gradientTransform="matrix(1 0 0 -1 -8.3599 1224.0547)">
			<stop  offset="0" style="stop-color:#A00707"/>
			<stop  offset="0.3317" style="stop-color:#F40302"/>
			<stop  offset="0.3756" style="stop-color:#FFA9B2"/>
			<stop  offset="0.4069" style="stop-color:#FFA5AD"/>
			<stop  offset="0.4429" style="stop-color:#FF9A9F"/>
			<stop  offset="0.481" style="stop-color:#FF8788"/>
			<stop  offset="0.5122" style="stop-color:#FF7370"/>
			<stop  offset="0.5415" style="stop-color:#F40302"/>
			<stop  offset="0.6537" style="stop-color:#BA0707"/>
			<stop  offset="0.6548" style="stop-color:#C80606"/>
			<stop  offset="0.6571" style="stop-color:#DB0504"/>
			<stop  offset="0.6596" style="stop-color:#E90403"/>
			<stop  offset="0.6628" style="stop-color:#F20302"/>
			<stop  offset="0.6683" style="stop-color:#F40302"/>
			<stop  offset="0.6683" style="stop-color:#F40302"/>
			<stop  offset="0.6683" style="stop-color:#F40302"/>
			<stop  offset="0.6687" style="stop-color:#F10302"/>
			<stop  offset="0.6731" style="stop-color:#D80504"/>
			<stop  offset="0.6777" style="stop-color:#C50606"/>
			<stop  offset="0.6825" style="stop-color:#BB0707"/>
			<stop  offset="0.6878" style="stop-color:#B70707"/>
			<stop  offset="0.7275" style="stop-color:#BA0707"/>
			<stop  offset="0.7518" style="stop-color:#C20606"/>
			<stop  offset="0.7721" style="stop-color:#D00505"/>
			<stop  offset="0.7899" style="stop-color:#E50403"/>
			<stop  offset="0.8" style="stop-color:#F40302"/>
			<stop  offset="1" style="stop-color:#BA0605"/>
		</linearGradient>
		<path fill="url(#SVGID_12_)" d="M520.727,395.066c0,0-74.311,23.73-85.549,28.101c-11.241,4.371-12.489,4.371-13.738,25.604
			c-1.248,21.231-6.87,149.244-6.87,200.451c0,51.204,13.113,388.402,13.738,404.01c0.625,15.612,2.771,23.595,10.128,29.282
			c-21.104-7.599-91.222-32.85-95.467-34.375c-4.246-1.53-5.831-8.02-6.455-18.008c-0.624-9.991-17.486-360.723-18.735-397.044
			c-1.248-36.321-2.185-139.979,0-178.383c2.187-38.404,4.059-51.207,24.667-58.074c20.608-6.87,72.748-21.855,72.748-21.855
			L520.727,395.066z"/>
		<path opacity="0.3" fill="#B66953" enable-background="new    " d="M430.33,370.681c0,0-37.407,14.394-6.599,23.551
			c30.804,9.159,124.92,5.988,164.702-6.66c-19.832,6.66-36.273,16.651-15.981,23.312c20.296,6.661,154.409-6.557,178.105-21.597
			c23.696-15.038-1.087-79.982-74.453-77.9C602.737,313.47,476.066,341.299,430.33,370.681z"/>
		
			<linearGradient id="SVGID_13_" gradientUnits="userSpaceOnUse" x1="759.9836" y1="825.3721" x2="795.5758" y2="703.6116" gradientTransform="matrix(1 0 0 -1 -8.3599 1224.0547)">
			<stop  offset="0" style="stop-color:#A00707"/>
			<stop  offset="0.3317" style="stop-color:#F40302"/>
			<stop  offset="0.3756" style="stop-color:#FFA9B2"/>
			<stop  offset="0.4069" style="stop-color:#FFA5AD"/>
			<stop  offset="0.4429" style="stop-color:#FF9A9F"/>
			<stop  offset="0.481" style="stop-color:#FF8788"/>
			<stop  offset="0.5122" style="stop-color:#FF7370"/>
			<stop  offset="0.5415" style="stop-color:#F40302"/>
			<stop  offset="0.6537" style="stop-color:#BA0707"/>
			<stop  offset="0.6548" style="stop-color:#C80606"/>
			<stop  offset="0.6571" style="stop-color:#DB0504"/>
			<stop  offset="0.6596" style="stop-color:#E90403"/>
			<stop  offset="0.6628" style="stop-color:#F20302"/>
			<stop  offset="0.6683" style="stop-color:#F40302"/>
			<stop  offset="0.6683" style="stop-color:#F40302"/>
			<stop  offset="0.6683" style="stop-color:#F40302"/>
			<stop  offset="0.6687" style="stop-color:#F10302"/>
			<stop  offset="0.6731" style="stop-color:#D80504"/>
			<stop  offset="0.6777" style="stop-color:#C50606"/>
			<stop  offset="0.6825" style="stop-color:#BB0707"/>
			<stop  offset="0.6878" style="stop-color:#B70707"/>
			<stop  offset="0.7275" style="stop-color:#BA0707"/>
			<stop  offset="0.7518" style="stop-color:#C20606"/>
			<stop  offset="0.7721" style="stop-color:#D00505"/>
			<stop  offset="0.7899" style="stop-color:#E50403"/>
			<stop  offset="0.8" style="stop-color:#F40302"/>
			<stop  offset="1" style="stop-color:#BA0605"/>
		</linearGradient>
		<path fill="url(#SVGID_13_)" d="M723.05,389.133c0,0,63.512,19.586,77.744,26.851c14.234,7.267,16.549,13.426,19.046,30.599
			c2.499,17.173,4.684,91.483,2.81,138.629c-1.873,47.147-15.922,438.049-17.17,455.843c-1.251,17.797-3.521,28.848-7.591,30.698
			c32.176-14.636,76.021-34.58,79.995-36.387c3.976-1.809,7.522-5.238,8.461-16.788c0.938-11.55,13.114-288.492,14.673-314.721
			c1.562-26.226,6.87-119.27,8.745-150.179c1.872-30.911,1.162-119.639-2.5-136.444c-3.661-16.804-7.804-20.919-20.918-25.602
			c-13.113-4.684-59.637-20.95-59.637-20.95L723.05,389.133z"/>
		
			<linearGradient id="SVGID_14_" gradientUnits="userSpaceOnUse" x1="476.0437" y1="909.8672" x2="452.7307" y2="838.2641" gradientTransform="matrix(1 0 0 -1 -8.3599 1224.0547)">
			<stop  offset="0" style="stop-color:#A00707"/>
			<stop  offset="0.3317" style="stop-color:#F40302"/>
			<stop  offset="0.3756" style="stop-color:#FFA9B2"/>
			<stop  offset="0.4069" style="stop-color:#FFA5AD"/>
			<stop  offset="0.4429" style="stop-color:#FF9A9F"/>
			<stop  offset="0.481" style="stop-color:#FF8788"/>
			<stop  offset="0.5122" style="stop-color:#FF7370"/>
			<stop  offset="0.5415" style="stop-color:#F40302"/>
			<stop  offset="0.6537" style="stop-color:#BA0707"/>
			<stop  offset="0.6548" style="stop-color:#C80606"/>
			<stop  offset="0.6571" style="stop-color:#DB0504"/>
			<stop  offset="0.6596" style="stop-color:#E90403"/>
			<stop  offset="0.6628" style="stop-color:#F20302"/>
			<stop  offset="0.6683" style="stop-color:#F40302"/>
			<stop  offset="0.6683" style="stop-color:#F40302"/>
			<stop  offset="0.6683" style="stop-color:#F40302"/>
			<stop  offset="0.6687" style="stop-color:#F10302"/>
			<stop  offset="0.6731" style="stop-color:#D80504"/>
			<stop  offset="0.6777" style="stop-color:#C50606"/>
			<stop  offset="0.6825" style="stop-color:#BB0707"/>
			<stop  offset="0.6878" style="stop-color:#B70707"/>
			<stop  offset="0.7275" style="stop-color:#BA0707"/>
			<stop  offset="0.7518" style="stop-color:#C20606"/>
			<stop  offset="0.7721" style="stop-color:#D00505"/>
			<stop  offset="0.7899" style="stop-color:#E50403"/>
			<stop  offset="0.8" style="stop-color:#F40302"/>
			<stop  offset="1" style="stop-color:#BA0605"/>
		</linearGradient>
		<path fill="url(#SVGID_14_)" d="M508.24,402.871c0,0-15.47-2.926-18.664-13.795c-3.193-10.87-0.696-32.726,13.356-40.531
			c14.049-7.805,27.162-3.435,27.162-3.435l-87.736-45.271c0,0-17.484-3.123-27.789,3.122
			c-10.302,6.243-17.172,10.614-23.416,24.354c-6.244,13.738-3.748,34.032,4.37,41.525c8.119,7.494,17.799,9.992,26.54,12.177
			C430.806,383.201,508.24,402.871,508.24,402.871z"/>
		
			<linearGradient id="SVGID_15_" gradientUnits="userSpaceOnUse" x1="507.0032" y1="1112.9355" x2="565.285" y2="1006.3624" gradientTransform="matrix(1 0 0 -1 -8.3599 1224.0547)">
			<stop  offset="0" style="stop-color:#A00707"/>
			<stop  offset="0.3317" style="stop-color:#F40302"/>
			<stop  offset="0.3756" style="stop-color:#FFA9B2"/>
			<stop  offset="0.4069" style="stop-color:#FFA5AD"/>
			<stop  offset="0.4429" style="stop-color:#FF9A9F"/>
			<stop  offset="0.481" style="stop-color:#FF8788"/>
			<stop  offset="0.5122" style="stop-color:#FF7370"/>
			<stop  offset="0.5415" style="stop-color:#F40302"/>
			<stop  offset="0.6537" style="stop-color:#BA0707"/>
			<stop  offset="0.6548" style="stop-color:#C80606"/>
			<stop  offset="0.6571" style="stop-color:#DB0504"/>
			<stop  offset="0.6596" style="stop-color:#E90403"/>
			<stop  offset="0.6628" style="stop-color:#F20302"/>
			<stop  offset="0.6683" style="stop-color:#F40302"/>
			<stop  offset="0.6683" style="stop-color:#F40302"/>
			<stop  offset="0.6683" style="stop-color:#F40302"/>
			<stop  offset="0.6687" style="stop-color:#F10302"/>
			<stop  offset="0.6731" style="stop-color:#D80504"/>
			<stop  offset="0.6777" style="stop-color:#C50606"/>
			<stop  offset="0.6825" style="stop-color:#BB0707"/>
			<stop  offset="0.6878" style="stop-color:#B70707"/>
			<stop  offset="0.7275" style="stop-color:#BA0707"/>
			<stop  offset="0.7518" style="stop-color:#C20606"/>
			<stop  offset="0.7721" style="stop-color:#D00505"/>
			<stop  offset="0.7899" style="stop-color:#E50403"/>
			<stop  offset="0.8" style="stop-color:#F40302"/>
			<stop  offset="1" style="stop-color:#BA0605"/>
		</linearGradient>
		<path fill="url(#SVGID_15_)" d="M450.165,148.407c0,0,35.385,76.392,47.457,98.664c41.632,5.204,120.938-38.717,120.938-38.717
			s-43.502-103.242-58.906-120.727C535.508,101.157,450.165,148.407,450.165,148.407z"/>
		
			<linearGradient id="SVGID_16_" gradientUnits="userSpaceOnUse" x1="863.1008" y1="1137.3623" x2="764.8522" y2="1049.938" gradientTransform="matrix(1 0 0 -1 -8.3599 1224.0547)">
			<stop  offset="0" style="stop-color:#A00707"/>
			<stop  offset="0.3317" style="stop-color:#F40302"/>
			<stop  offset="0.3756" style="stop-color:#FFA9B2"/>
			<stop  offset="0.4069" style="stop-color:#FFA5AD"/>
			<stop  offset="0.4429" style="stop-color:#FF9A9F"/>
			<stop  offset="0.481" style="stop-color:#FF8788"/>
			<stop  offset="0.5122" style="stop-color:#FF7370"/>
			<stop  offset="0.5415" style="stop-color:#F40302"/>
			<stop  offset="0.6537" style="stop-color:#BA0707"/>
			<stop  offset="0.6548" style="stop-color:#C80606"/>
			<stop  offset="0.6571" style="stop-color:#DB0504"/>
			<stop  offset="0.6596" style="stop-color:#E90403"/>
			<stop  offset="0.6628" style="stop-color:#F20302"/>
			<stop  offset="0.6683" style="stop-color:#F40302"/>
			<stop  offset="0.6683" style="stop-color:#F40302"/>
			<stop  offset="0.6683" style="stop-color:#F40302"/>
			<stop  offset="0.6687" style="stop-color:#F10302"/>
			<stop  offset="0.6731" style="stop-color:#D80504"/>
			<stop  offset="0.6777" style="stop-color:#C50606"/>
			<stop  offset="0.6825" style="stop-color:#BB0707"/>
			<stop  offset="0.6878" style="stop-color:#B70707"/>
			<stop  offset="0.7275" style="stop-color:#BA0707"/>
			<stop  offset="0.7518" style="stop-color:#C20606"/>
			<stop  offset="0.7721" style="stop-color:#D00505"/>
			<stop  offset="0.7899" style="stop-color:#E50403"/>
			<stop  offset="0.8" style="stop-color:#F40302"/>
			<stop  offset="1" style="stop-color:#BA0605"/>
		</linearGradient>
		<path fill="url(#SVGID_16_)" d="M780.707,149.032c0,0,39.133-25.603,56.618-9.574c-26.02-20.815-45.168-34.345-45.168-34.345
			L780.707,149.032z"/>
		
			<linearGradient id="SVGID_17_" gradientUnits="userSpaceOnUse" x1="832.6614" y1="1074.9756" x2="681.5438" y2="918.8623" gradientTransform="matrix(1 0 0 -1 -8.3599 1224.0547)">
			<stop  offset="0" style="stop-color:#A00707"/>
			<stop  offset="0.1854" style="stop-color:#DB0403"/>
			<stop  offset="0.2242" style="stop-color:#D30504"/>
			<stop  offset="0.3231" style="stop-color:#C60605"/>
			<stop  offset="0.4098" style="stop-color:#C10706"/>
			<stop  offset="0.4302" style="stop-color:#C90504"/>
			<stop  offset="0.4674" style="stop-color:#D00302"/>
			<stop  offset="0.5707" style="stop-color:#D20302"/>
			<stop  offset="0.6232" style="stop-color:#DA0403"/>
			<stop  offset="0.7268" style="stop-color:#E60504"/>
			<stop  offset="0.8067" style="stop-color:#D60505"/>
			<stop  offset="0.9631" style="stop-color:#AB0707"/>
			<stop  offset="1" style="stop-color:#A00707"/>
		</linearGradient>
		<path fill="url(#SVGID_17_)" d="M657.277,311.39c0,0,36.842-15.404,74.726-38.092c37.883-22.688,89.712-55.368,105.324-87.006
			c15.611-31.64,6.059-42.021,0-46.833c-6.06-4.814-14.155-13.112-57.868,9.574c-43.711,22.688-135.089,140.501-135.089,140.501
			L657.277,311.39z"/>
		
			<linearGradient id="SVGID_18_" gradientUnits="userSpaceOnUse" x1="900.509" y1="1048.7227" x2="771.4543" y2="951.3074" gradientTransform="matrix(1 0 0 -1 -8.3599 1224.0547)">
			<stop  offset="0" style="stop-color:#A00707"/>
			<stop  offset="0.3317" style="stop-color:#F40302"/>
			<stop  offset="0.3756" style="stop-color:#FFA9B2"/>
			<stop  offset="0.4069" style="stop-color:#FFA5AD"/>
			<stop  offset="0.4429" style="stop-color:#FF9A9F"/>
			<stop  offset="0.481" style="stop-color:#FF8788"/>
			<stop  offset="0.5122" style="stop-color:#FF7370"/>
			<stop  offset="0.5415" style="stop-color:#F40302"/>
			<stop  offset="0.6537" style="stop-color:#BA0707"/>
			<stop  offset="0.6548" style="stop-color:#C80606"/>
			<stop  offset="0.6571" style="stop-color:#DB0504"/>
			<stop  offset="0.6596" style="stop-color:#E90403"/>
			<stop  offset="0.6628" style="stop-color:#F20302"/>
			<stop  offset="0.6683" style="stop-color:#F40302"/>
			<stop  offset="0.6683" style="stop-color:#F40302"/>
			<stop  offset="0.6683" style="stop-color:#F40302"/>
			<stop  offset="0.6687" style="stop-color:#F10302"/>
			<stop  offset="0.6731" style="stop-color:#D80504"/>
			<stop  offset="0.6777" style="stop-color:#C50606"/>
			<stop  offset="0.6825" style="stop-color:#BB0707"/>
			<stop  offset="0.6878" style="stop-color:#B70707"/>
			<stop  offset="0.7275" style="stop-color:#BA0707"/>
			<stop  offset="0.7518" style="stop-color:#C20606"/>
			<stop  offset="0.7721" style="stop-color:#D00505"/>
			<stop  offset="0.7899" style="stop-color:#E50403"/>
			<stop  offset="0.8" style="stop-color:#F40302"/>
			<stop  offset="1" style="stop-color:#BA0605"/>
		</linearGradient>
		<path fill="url(#SVGID_18_)" d="M832.537,186.292l41.424,53.911c0,0-10.2-16.028-50.997,3.122
			c-40.799,19.15-93.462,60.989-93.462,60.989s-58.214,10.568-73.962,4.139C712.853,248.736,824.212,188.998,832.537,186.292z"/>
		
			<linearGradient id="SVGID_19_" gradientUnits="userSpaceOnUse" x1="787.8245" y1="920.043" x2="804.476" y2="861.761" gradientTransform="matrix(1 0 0 -1 -8.3599 1224.0547)">
			<stop  offset="0" style="stop-color:#A00707"/>
			<stop  offset="0.3317" style="stop-color:#F40302"/>
			<stop  offset="0.3756" style="stop-color:#FFA9B2"/>
			<stop  offset="0.4069" style="stop-color:#FFA5AD"/>
			<stop  offset="0.4429" style="stop-color:#FF9A9F"/>
			<stop  offset="0.481" style="stop-color:#FF8788"/>
			<stop  offset="0.5122" style="stop-color:#FF7370"/>
			<stop  offset="0.5415" style="stop-color:#F40302"/>
			<stop  offset="0.6537" style="stop-color:#BA0707"/>
			<stop  offset="0.6548" style="stop-color:#C80606"/>
			<stop  offset="0.6571" style="stop-color:#DB0504"/>
			<stop  offset="0.6596" style="stop-color:#E90403"/>
			<stop  offset="0.6628" style="stop-color:#F20302"/>
			<stop  offset="0.6683" style="stop-color:#F40302"/>
			<stop  offset="0.6683" style="stop-color:#F40302"/>
			<stop  offset="0.6683" style="stop-color:#F40302"/>
			<stop  offset="0.6687" style="stop-color:#F10302"/>
			<stop  offset="0.6731" style="stop-color:#D80504"/>
			<stop  offset="0.6777" style="stop-color:#C50606"/>
			<stop  offset="0.6825" style="stop-color:#BB0707"/>
			<stop  offset="0.6878" style="stop-color:#B70707"/>
			<stop  offset="0.7275" style="stop-color:#BA0707"/>
			<stop  offset="0.7518" style="stop-color:#C20606"/>
			<stop  offset="0.7721" style="stop-color:#D00505"/>
			<stop  offset="0.7899" style="stop-color:#E50403"/>
			<stop  offset="0.8" style="stop-color:#F40302"/>
			<stop  offset="1" style="stop-color:#BA0605"/>
		</linearGradient>
		<path fill="url(#SVGID_19_)" d="M721.8,302.231c0,0,20.942-0.208,30.869,11.241c9.928,11.448,16.797,25.186,14.299,42.462
			c-2.497,17.276-13.111,34.345-39.131,38.299c39.548-7.077,87.631-14.777,98.245-16.652c10.617-1.874,24.562-5.413,30.599-14.363
			c6.038-8.951,10.616-31.013,2.08-50.997c-8.531-19.983-21.855-33.096-56.2-36.01C759.062,289.743,721.8,302.231,721.8,302.231z"/>
		
			<linearGradient id="SVGID_20_" gradientUnits="userSpaceOnUse" x1="674.468" y1="921.6475" x2="676.1335" y2="875.0219" gradientTransform="matrix(1 0 0 -1 -8.3599 1224.0547)">
			<stop  offset="0" style="stop-color:#A00707"/>
			<stop  offset="0.1854" style="stop-color:#DB0403"/>
			<stop  offset="0.2242" style="stop-color:#D30504"/>
			<stop  offset="0.3231" style="stop-color:#C60605"/>
			<stop  offset="0.4098" style="stop-color:#C10706"/>
			<stop  offset="0.4302" style="stop-color:#C90504"/>
			<stop  offset="0.4674" style="stop-color:#D00302"/>
			<stop  offset="0.5707" style="stop-color:#D20302"/>
			<stop  offset="0.6232" style="stop-color:#DA0403"/>
			<stop  offset="0.7268" style="stop-color:#E60504"/>
			<stop  offset="0.8067" style="stop-color:#D60505"/>
			<stop  offset="0.9631" style="stop-color:#AB0707"/>
			<stop  offset="1" style="stop-color:#A00707"/>
		</linearGradient>
		<path fill="url(#SVGID_20_)" d="M702.86,303.271c0,0-4.58-1.457-6.869,9.367c-2.29,10.824,1.523,31.937-5.412,34.969
			c-6.934,3.033-59.53,1.25-59.53,1.25l11.448-40.434L702.86,303.271z"/>
		
			<linearGradient id="SVGID_21_" gradientUnits="userSpaceOnUse" x1="640.5061" y1="1181.4756" x2="658.824" y2="1074.9014" gradientTransform="matrix(1 0 0 -1 -8.3599 1224.0547)">
			<stop  offset="0" style="stop-color:#A00707"/>
			<stop  offset="0.3317" style="stop-color:#F40302"/>
			<stop  offset="0.3756" style="stop-color:#FFA9B2"/>
			<stop  offset="0.4069" style="stop-color:#FFA5AD"/>
			<stop  offset="0.4429" style="stop-color:#FF9A9F"/>
			<stop  offset="0.481" style="stop-color:#FF8788"/>
			<stop  offset="0.5122" style="stop-color:#FF7370"/>
			<stop  offset="0.5415" style="stop-color:#F40302"/>
			<stop  offset="0.6537" style="stop-color:#BA0707"/>
			<stop  offset="0.6548" style="stop-color:#C80606"/>
			<stop  offset="0.6571" style="stop-color:#DB0504"/>
			<stop  offset="0.6596" style="stop-color:#E90403"/>
			<stop  offset="0.6628" style="stop-color:#F20302"/>
			<stop  offset="0.6683" style="stop-color:#F40302"/>
			<stop  offset="0.6683" style="stop-color:#F40302"/>
			<stop  offset="0.6683" style="stop-color:#F40302"/>
			<stop  offset="0.6687" style="stop-color:#F10302"/>
			<stop  offset="0.6731" style="stop-color:#D80504"/>
			<stop  offset="0.6777" style="stop-color:#C50606"/>
			<stop  offset="0.6825" style="stop-color:#BB0707"/>
			<stop  offset="0.6878" style="stop-color:#B70707"/>
			<stop  offset="0.7275" style="stop-color:#BA0707"/>
			<stop  offset="0.7518" style="stop-color:#C20606"/>
			<stop  offset="0.7721" style="stop-color:#D00505"/>
			<stop  offset="0.7899" style="stop-color:#E50403"/>
			<stop  offset="0.8" style="stop-color:#F40302"/>
			<stop  offset="1" style="stop-color:#BA0605"/>
		</linearGradient>
		<path fill="url(#SVGID_21_)" d="M572.452,113.681c0,0,9.055-24.181,18.734-32.403c9.68-8.222,16.86-11.761,24.771-13.218
			c7.909-1.458,91.274-18.004,91.274-18.004s-10.408-2.081-21.856,19.046s-43.919,97.518-43.919,97.518s-37.989,14.779-53.391,2.083
			C572.661,156.004,572.452,113.681,572.452,113.681z"/>
		
			<linearGradient id="SVGID_22_" gradientUnits="userSpaceOnUse" x1="718.4827" y1="1180.6738" x2="713.903" y2="1011.2389" gradientTransform="matrix(1 0 0 -1 -8.3599 1224.0547)">
			<stop  offset="0" style="stop-color:#A00707"/>
			<stop  offset="0.1854" style="stop-color:#DB0403"/>
			<stop  offset="0.2242" style="stop-color:#D30504"/>
			<stop  offset="0.3231" style="stop-color:#C60605"/>
			<stop  offset="0.4098" style="stop-color:#C10706"/>
			<stop  offset="0.4302" style="stop-color:#C90504"/>
			<stop  offset="0.4674" style="stop-color:#D00302"/>
			<stop  offset="0.5707" style="stop-color:#D20302"/>
			<stop  offset="0.6232" style="stop-color:#DA0403"/>
			<stop  offset="0.7268" style="stop-color:#E60504"/>
			<stop  offset="0.8067" style="stop-color:#D60505"/>
			<stop  offset="0.9631" style="stop-color:#AB0707"/>
			<stop  offset="1" style="stop-color:#A00707"/>
		</linearGradient>
		<path fill="url(#SVGID_22_)" d="M735.437,87.523c0,0-0.729-16.444-5.724-24.042c-4.996-7.596-14.153-13.53-22.48-13.424
			c-8.326,0.104-16.944,8.351-24.448,24.046C705.359,105.007,735.437,87.523,735.437,87.523z"/>
		
			<linearGradient id="SVGID_23_" gradientUnits="userSpaceOnUse" x1="589.5378" y1="1032.498" x2="647.9073" y2="875.7335" gradientTransform="matrix(1 0 0 -1 -8.3599 1224.0547)">
			<stop  offset="0" style="stop-color:#A00707"/>
			<stop  offset="0.1854" style="stop-color:#DB0403"/>
			<stop  offset="0.2242" style="stop-color:#D30504"/>
			<stop  offset="0.3231" style="stop-color:#C60605"/>
			<stop  offset="0.4098" style="stop-color:#C10706"/>
			<stop  offset="0.4302" style="stop-color:#C90504"/>
			<stop  offset="0.4674" style="stop-color:#D00302"/>
			<stop  offset="0.5707" style="stop-color:#D20302"/>
			<stop  offset="0.6232" style="stop-color:#DA0403"/>
			<stop  offset="0.7268" style="stop-color:#E60504"/>
			<stop  offset="0.8067" style="stop-color:#D60505"/>
			<stop  offset="0.9631" style="stop-color:#AB0707"/>
			<stop  offset="1" style="stop-color:#A00707"/>
		</linearGradient>
		<path fill="url(#SVGID_23_)" d="M561.629,245.041c0,0,2.342-19.982,4.84-32.316c2.498-12.333,8.229-34.189,18.892-38.092
			c10.659-3.902,21.798,2.988,27.328,10.958c5.527,7.968,21.735,29.163,22.627,57.887c0.689,22.223-10.771,37.156-38.403,42.932
			C575.68,279.855,561.629,245.041,561.629,245.041z"/>
		
			<linearGradient id="SVGID_24_" gradientUnits="userSpaceOnUse" x1="671.8752" y1="1154.1064" x2="626.9147" y2="1060.4387" gradientTransform="matrix(1 0 0 -1 -8.3599 1224.0547)">
			<stop  offset="0" style="stop-color:#A00707"/>
			<stop  offset="0.1854" style="stop-color:#DB0403"/>
			<stop  offset="0.2242" style="stop-color:#D30504"/>
			<stop  offset="0.3231" style="stop-color:#C60605"/>
			<stop  offset="0.4098" style="stop-color:#C10706"/>
			<stop  offset="0.4302" style="stop-color:#C90504"/>
			<stop  offset="0.4674" style="stop-color:#D00302"/>
			<stop  offset="0.5707" style="stop-color:#D20302"/>
			<stop  offset="0.6232" style="stop-color:#DA0403"/>
			<stop  offset="0.7268" style="stop-color:#E60504"/>
			<stop  offset="0.8067" style="stop-color:#D60505"/>
			<stop  offset="0.9631" style="stop-color:#AB0707"/>
			<stop  offset="1" style="stop-color:#A00707"/>
		</linearGradient>
		<path fill="url(#SVGID_24_)" d="M598.496,173.511c0,0,13.61-44.254,31.929-74.435c18.316-30.182,33.046-49.541,41.213-46.833
			c8.165,2.705,5.24,32.398-9.656,62.948c-14.897,30.55-26.146,55.697-45.919,59.859
			C606.903,176.299,598.496,173.511,598.496,173.511z"/>
		
			<linearGradient id="SVGID_25_" gradientUnits="userSpaceOnUse" x1="750.1155" y1="1156.0039" x2="715.1463" y2="1062.7532" gradientTransform="matrix(1 0 0 -1 -8.3599 1224.0547)">
			<stop  offset="0" style="stop-color:#A00707"/>
			<stop  offset="0.3317" style="stop-color:#F40302"/>
			<stop  offset="0.3756" style="stop-color:#FFA9B2"/>
			<stop  offset="0.4069" style="stop-color:#FFA5AD"/>
			<stop  offset="0.4429" style="stop-color:#FF9A9F"/>
			<stop  offset="0.481" style="stop-color:#FF8788"/>
			<stop  offset="0.5122" style="stop-color:#FF7370"/>
			<stop  offset="0.5415" style="stop-color:#F40302"/>
			<stop  offset="0.6537" style="stop-color:#BA0707"/>
			<stop  offset="0.6548" style="stop-color:#C80606"/>
			<stop  offset="0.6571" style="stop-color:#DB0504"/>
			<stop  offset="0.6596" style="stop-color:#E90403"/>
			<stop  offset="0.6628" style="stop-color:#F20302"/>
			<stop  offset="0.6683" style="stop-color:#F40302"/>
			<stop  offset="0.6683" style="stop-color:#F40302"/>
			<stop  offset="0.6683" style="stop-color:#F40302"/>
			<stop  offset="0.6687" style="stop-color:#F10302"/>
			<stop  offset="0.6731" style="stop-color:#D80504"/>
			<stop  offset="0.6777" style="stop-color:#C50606"/>
			<stop  offset="0.6825" style="stop-color:#BB0707"/>
			<stop  offset="0.6878" style="stop-color:#B70707"/>
			<stop  offset="0.7275" style="stop-color:#BA0707"/>
			<stop  offset="0.7518" style="stop-color:#C20606"/>
			<stop  offset="0.7721" style="stop-color:#D00505"/>
			<stop  offset="0.7899" style="stop-color:#E50403"/>
			<stop  offset="0.8" style="stop-color:#F40302"/>
			<stop  offset="1" style="stop-color:#BA0605"/>
		</linearGradient>
		<path fill="url(#SVGID_25_)" d="M671.638,52.243c0,0,8.742,3.746,2.915,26.85c-5.829,23.105-28.766,81.381-48.499,91.171
			c7.494,34.761,101.576,64.1,121.352,64.313c24.146-42.874,37.883-73.472,44.754-95.744c6.868-22.272,7.283-37.052,1.663-46.002
			C774.673,86.379,671.638,52.243,671.638,52.243z"/>
		
			<linearGradient id="SVGID_26_" gradientUnits="userSpaceOnUse" x1="628.4592" y1="1125.5986" x2="700.0637" y2="947.4205" gradientTransform="matrix(1 0 0 -1 -8.3599 1224.0547)">
			<stop  offset="0" style="stop-color:#A00707"/>
			<stop  offset="0.3317" style="stop-color:#F40302"/>
			<stop  offset="0.3756" style="stop-color:#FFA9B2"/>
			<stop  offset="0.4069" style="stop-color:#FFA5AD"/>
			<stop  offset="0.4429" style="stop-color:#FF9A9F"/>
			<stop  offset="0.481" style="stop-color:#FF8788"/>
			<stop  offset="0.5122" style="stop-color:#FF7370"/>
			<stop  offset="0.5415" style="stop-color:#F40302"/>
			<stop  offset="0.6537" style="stop-color:#BA0707"/>
			<stop  offset="0.6548" style="stop-color:#C80606"/>
			<stop  offset="0.6571" style="stop-color:#DB0504"/>
			<stop  offset="0.6596" style="stop-color:#E90403"/>
			<stop  offset="0.6628" style="stop-color:#F20302"/>
			<stop  offset="0.6683" style="stop-color:#F40302"/>
			<stop  offset="0.6683" style="stop-color:#F40302"/>
			<stop  offset="0.6683" style="stop-color:#F40302"/>
			<stop  offset="0.6687" style="stop-color:#F10302"/>
			<stop  offset="0.6731" style="stop-color:#D80504"/>
			<stop  offset="0.6777" style="stop-color:#C50606"/>
			<stop  offset="0.6825" style="stop-color:#BB0707"/>
			<stop  offset="0.6878" style="stop-color:#B70707"/>
			<stop  offset="0.7275" style="stop-color:#BA0707"/>
			<stop  offset="0.7518" style="stop-color:#C20606"/>
			<stop  offset="0.7721" style="stop-color:#D00505"/>
			<stop  offset="0.7899" style="stop-color:#E50403"/>
			<stop  offset="0.8" style="stop-color:#F40302"/>
			<stop  offset="1" style="stop-color:#BA0605"/>
		</linearGradient>
		<path fill="url(#SVGID_26_)" d="M585.36,174.635c6.088-2.187,18.106-1.405,27.788,11.551c9.68,12.958,23.571,37.937,22.167,62.915
			c-1.406,24.977-27.631,35.75-38.403,37.311c31.223,9.679,90.389,4.058,106.625-2.81c16.235-6.87,35.127-25.915,41.996-41.526
			c6.867-15.61,10.928-45.116,2.029-71.5c-8.898-26.383-21.702-39.808-35.751-41.683C694.013,134.825,585.36,174.635,585.36,174.635
			z"/>
		
			<linearGradient id="SVGID_27_" gradientUnits="userSpaceOnUse" x1="515.1096" y1="1002.3945" x2="503.4532" y2="928.2945" gradientTransform="matrix(1 0 0 -1 -8.3599 1224.0547)">
			<stop  offset="0" style="stop-color:#A00707"/>
			<stop  offset="0.3317" style="stop-color:#F40302"/>
			<stop  offset="0.3756" style="stop-color:#FFA9B2"/>
			<stop  offset="0.4069" style="stop-color:#FFA5AD"/>
			<stop  offset="0.4429" style="stop-color:#FF9A9F"/>
			<stop  offset="0.481" style="stop-color:#FF8788"/>
			<stop  offset="0.5122" style="stop-color:#FF7370"/>
			<stop  offset="0.5415" style="stop-color:#F40302"/>
			<stop  offset="0.6537" style="stop-color:#BA0707"/>
			<stop  offset="0.6548" style="stop-color:#C80606"/>
			<stop  offset="0.6571" style="stop-color:#DB0504"/>
			<stop  offset="0.6596" style="stop-color:#E90403"/>
			<stop  offset="0.6628" style="stop-color:#F20302"/>
			<stop  offset="0.6683" style="stop-color:#F40302"/>
			<stop  offset="0.6683" style="stop-color:#F40302"/>
			<stop  offset="0.6683" style="stop-color:#F40302"/>
			<stop  offset="0.6687" style="stop-color:#F10302"/>
			<stop  offset="0.6731" style="stop-color:#D80504"/>
			<stop  offset="0.6777" style="stop-color:#C50606"/>
			<stop  offset="0.6825" style="stop-color:#BB0707"/>
			<stop  offset="0.6878" style="stop-color:#B70707"/>
			<stop  offset="0.7275" style="stop-color:#BA0707"/>
			<stop  offset="0.7518" style="stop-color:#C20606"/>
			<stop  offset="0.7721" style="stop-color:#D00505"/>
			<stop  offset="0.7899" style="stop-color:#E50403"/>
			<stop  offset="0.8" style="stop-color:#F40302"/>
			<stop  offset="1" style="stop-color:#BA0605"/>
		</linearGradient>
		<path fill="url(#SVGID_27_)" d="M565.532,308.423c0,0-14.987-1.249-19.982-11.708c-4.996-10.459-6.089-24.978,0-41.37
			c6.088-16.391,21.231-22.325,31.222-20.606c-21.856-3.435-117.899-19.983-117.899-19.983s-11.985,0.468-20.417,13.271
			c-8.431,12.802-19.045,47.615,4.058,71.031C508.082,306.082,565.532,308.423,565.532,308.423z"/>
		
			<linearGradient id="SVGID_28_" gradientUnits="userSpaceOnUse" x1="602.4944" y1="973.3359" x2="579.1816" y2="854.274" gradientTransform="matrix(1 0 0 -1 -8.3599 1224.0547)">
			<stop  offset="0" style="stop-color:#A00707"/>
			<stop  offset="0.1854" style="stop-color:#DB0403"/>
			<stop  offset="0.2242" style="stop-color:#D30504"/>
			<stop  offset="0.3231" style="stop-color:#C60605"/>
			<stop  offset="0.4098" style="stop-color:#C10706"/>
			<stop  offset="0.4302" style="stop-color:#C90504"/>
			<stop  offset="0.4674" style="stop-color:#D00302"/>
			<stop  offset="0.5707" style="stop-color:#D20302"/>
			<stop  offset="0.6232" style="stop-color:#DA0403"/>
			<stop  offset="0.7268" style="stop-color:#E60504"/>
			<stop  offset="0.8067" style="stop-color:#D60505"/>
			<stop  offset="0.9631" style="stop-color:#AB0707"/>
			<stop  offset="1" style="stop-color:#A00707"/>
		</linearGradient>
		<path fill="url(#SVGID_28_)" d="M635.315,288.285c0,0-11.554-3.279-19.67-14.987c-8.119-11.708-30.108-37.14-38.874-38.56
			c-4.939-0.794-21.57,0.842-29.438,16.578c-7.873,15.737-6.938,37.905-1.784,45.398c5.152,7.493,14.047,11.232,19.982,11.708
			C571.466,308.898,614.24,303.428,635.315,288.285z"/>
		
			<linearGradient id="SVGID_29_" gradientUnits="userSpaceOnUse" x1="596.8943" y1="921.1094" x2="628.5332" y2="846.1743" gradientTransform="matrix(1 0 0 -1 -8.3599 1224.0547)">
			<stop  offset="0" style="stop-color:#A00707"/>
			<stop  offset="0.3317" style="stop-color:#F40302"/>
			<stop  offset="0.3756" style="stop-color:#FFA9B2"/>
			<stop  offset="0.4069" style="stop-color:#FFA5AD"/>
			<stop  offset="0.4429" style="stop-color:#FF9A9F"/>
			<stop  offset="0.481" style="stop-color:#FF8788"/>
			<stop  offset="0.5122" style="stop-color:#FF7370"/>
			<stop  offset="0.5415" style="stop-color:#F40302"/>
			<stop  offset="0.6537" style="stop-color:#BA0707"/>
			<stop  offset="0.6548" style="stop-color:#C80606"/>
			<stop  offset="0.6571" style="stop-color:#DB0504"/>
			<stop  offset="0.6596" style="stop-color:#E90403"/>
			<stop  offset="0.6628" style="stop-color:#F20302"/>
			<stop  offset="0.6683" style="stop-color:#F40302"/>
			<stop  offset="0.6683" style="stop-color:#F40302"/>
			<stop  offset="0.6683" style="stop-color:#F40302"/>
			<stop  offset="0.6687" style="stop-color:#F10302"/>
			<stop  offset="0.6731" style="stop-color:#D80504"/>
			<stop  offset="0.6777" style="stop-color:#C50606"/>
			<stop  offset="0.6825" style="stop-color:#BB0707"/>
			<stop  offset="0.6878" style="stop-color:#B70707"/>
			<stop  offset="0.7275" style="stop-color:#BA0707"/>
			<stop  offset="0.7518" style="stop-color:#C20606"/>
			<stop  offset="0.7721" style="stop-color:#D00505"/>
			<stop  offset="0.7899" style="stop-color:#E50403"/>
			<stop  offset="0.8" style="stop-color:#F40302"/>
			<stop  offset="1" style="stop-color:#BA0605"/>
		</linearGradient>
		<path fill="url(#SVGID_29_)" d="M520.727,329.187c0,0-0.312,15.299,13.426,39.651c13.738,24.354,22.792,34.657,27.475,35.594
			c12.489-5.932,128.948-56.826,128.948-56.826s-14.048-9.366-26.695-33.094c-12.645-23.73-15.61-33.877-14.987-36.375
			C641.245,280.947,520.727,329.187,520.727,329.187z"/>
	</g>
</g>
</svg>
